<?xml version="1.0" encoding="UTF-8" standalone="no"?>
<!-- Created with Inkscape (http://www.inkscape.org/) -->

<svg
   width="116.10323mm"
   height="33.848957mm"
   viewBox="0 0 116.10323 33.848957"
   version="1.1"
   id="svg1"
   sodipodi:docname="logo_dark.svg"
   inkscape:version="1.3.2 (091e20e, 2023-11-25, custom)"
   xmlns:inkscape="http://www.inkscape.org/namespaces/inkscape"
   xmlns:sodipodi="http://sodipodi.sourceforge.net/DTD/sodipodi-0.dtd"
   xmlns="http://www.w3.org/2000/svg"
   xmlns:svg="http://www.w3.org/2000/svg">
  <sodipodi:namedview
     id="namedview1"
     pagecolor="#ffffff"
     bordercolor="#cccccc"
     borderopacity="1"
     inkscape:showpageshadow="0"
     inkscape:pageopacity="1"
     inkscape:pagecheckerboard="0"
     inkscape:deskcolor="#d1d1d1"
     inkscape:document-units="mm"
     inkscape:zoom="1.3832697"
     inkscape:cx="219.40769"
     inkscape:cy="63.617385"
     inkscape:window-width="1500"
     inkscape:window-height="930"
     inkscape:window-x="-6"
     inkscape:window-y="-6"
     inkscape:window-maximized="1"
     inkscape:current-layer="svg1" />
  <defs
     id="defs1">
    <clipPath
       clipPathUnits="userSpaceOnUse"
       id="clipPath57583-1">
      <path
         id="path57584-5"
         style="fill:#ff0000;fill-opacity:1;fill-rule:nonzero;stroke:none;stroke-width:0.264583"
         d="M 11.109399,5.4978557 V 188.30685 c 0.369432,-0.19735 0.73444,-0.41174 1.1436,-0.4625 0.897889,-0.11144 1.58878,0.41782 2.15284,1.04903 1.002471,0.0893 1.999126,0.19113 2.998783,0.28939 2.828994,-1.50169 5.801586,-2.65774 8.963278,-3.33313 2.691526,-0.49396 5.409807,-0.92978 8.156608,-0.87488 1.362969,-0.004 2.726296,-0.009 4.089157,-0.0279 1.22619,-0.0193 2.452796,-0.0391 3.677811,-0.0992 1.845384,-0.0978 3.687152,-0.36914 5.540746,-0.21652 1.877282,0.0811 3.752643,0.21122 5.617744,0.44545 1.263348,0.16101 2.521654,0.35471 3.779615,0.55139 2.582201,-1.81836 5.366475,-3.34601 8.250661,-4.67207 3.833802,-1.70816 7.889113,-2.77841 11.997717,-3.56774 2.792256,-0.50687 5.621999,-0.72894 8.453231,-0.85783 3.215301,-0.0826 6.425422,0.16354 9.626285,0.44597 9.468445,-3.88817 19.475375,-6.215 29.454535,-8.36022 6.32306,-1.39781 12.71138,-2.46489 19.13423,-3.2768 2.07489,-0.25852 4.15814,-0.37673 6.24251,-0.38705 2.08439,-0.0103 4.16992,0.0872 6.24923,0.26096 4.43876,0.44403 8.56602,1.77586 12.59717,3.63957 3.51157,1.53515 6.70821,3.62235 9.75082,5.93142 2.31507,1.69411 4.48174,3.57251 6.59133,5.51285 0.0979,0.0915 0.19121,0.1878 0.28887,0.27956 2.19255,-0.24526 4.38811,-0.46722 6.5903,-0.63975 1.95582,-0.18566 3.90992,-0.38226 5.85907,-0.62994 0.7228,-0.0918 1.44373,-0.19678 2.1637,-0.31005 V 5.4978557 Z M 194.45325,183.25341 c -0.004,0.001 -0.008,0.002 -0.0114,0.004 0.13348,-7.9e-4 0.26711,0.006 0.4005,0.002 0.12961,-0.003 -0.18885,-0.002 -0.38912,-0.006 z M 20.69176,222.83704 c -2.814551,0.7175 -6.026468,1.8314 -9.299174,3.00396 0.282226,0.32606 0.56554,0.65121 0.876949,0.95188 h 15.663128 c -2.497446,-1.3244 -4.967495,-2.64564 -7.240903,-3.95584 z m 158.77842,2.39882 c -1.25782,0.33797 -2.51128,0.69205 -3.75326,1.08573 -0.47698,0.1691 -0.96095,0.31239 -1.44074,0.47129 h 18.91358 c 0.23251,-0.20368 0.45201,-0.41405 0.66197,-0.62839 -0.69919,0.005 -1.39819,0.0139 -2.09806,-5.3e-4 -1.81367,-0.0158 -3.62797,-0.0343 -5.43946,-0.13229 -2.29391,-0.14009 -4.58309,-0.37446 -6.84403,-0.79582 z m 21.00906,0.42375 c -0.40247,0.0636 -0.80705,0.11071 -1.21078,0.16537 -0.17436,0.32435 -0.33819,0.65493 -0.53124,0.9679 h 1.74202 z" />
    </clipPath>
  </defs>
  <g
     id="layer1"
     style="display:inline"
     transform="translate(-14.389535,-76.165714)"
     inkscape:label="z">
    <path
       id="path57570"
       clip-path="url(#clipPath57583-1)"
       style="fill:#800000;stroke:none;stroke-width:3.52719"
       d="m 150.40581,5.4978556 -9.10436,6.4399174 -65.551035,21.569226 -39.149032,13.12478 c 1.35056,7.134684 5.519887,14.277308 12.745992,15.305526 l 2.731617,-0.956531 v 0.956531 h -2.731617 v 0.95653 l -4.552176,0.957048 v 0.956531 L 75.750415,56.077197 86.67533,52.37148 89.406429,53.328011 109.43621,46.631779 C 91.677542,74.840182 62.954188,94.445676 48.437354,125.0735 c -0.333444,0.0652 -0.668309,0.16358 -1.002523,0.28939 l -0.818555,2.5802 h -0.910539 l 1.599903,-2.52129 c -4.866079,1.94038 -9.621081,9.91674 -9.793718,14.95723 -7.866201,4.19711 -10.613522,14.65801 -15.458488,21.75423 -2.123891,3.11071 -4.936222,4.89576 -5.880261,8.85837 -1.695657,7.11737 3.62976,13.37519 10.413835,13.26379 8.733713,-0.14353 18.587489,-5.44707 26.402522,-9.14621 17.472347,-8.27028 34.200806,-18.38027 51.89451,-26.12037 l -0.91054,-1.91358 24.58196,-11.07219 52.80505,-18.58233 v -0.95653 c -22.08587,1.01177 -42.60277,17.1547 -64.64102,17.21859 v 0.95653 l -4.55218,0.95704 4.55218,-1.91357 v -0.95653 l 23.67142,-9.23665 35.50688,-14.67817 v -0.95705 l -12.74599,1.91358 v 0.95653 l -5.46272,0.95653 5.46272,-1.91306 v -0.95653 l 24.58144,-7.0156 8.19382,-5.420337 c -12.78381,3.774667 -26.276,4.617537 -39.14852,8.365897 -32.87224,9.57216 -67.925225,23.29145 -97.416272,41.37732 21.248778,-35.85217 51.206022,-66.075437 77.646942,-97.57389 7.53022,-8.970573 19.499,-16.605725 25.32507,-26.784928 C 166.04134,15.283 156.7565,8.991468 151.31635,10.280509 l -5.46272,0.956531 z M 47.30564,125.4218 c 0.04315,-0.0172 0.08602,-0.0427 0.129191,-0.0589 l 0.09198,-0.28939 z M 64.824984,53.328011 v 0.956531 l -3.641638,0.956531 v -0.956531 z m -14.56707,4.783171 v 0.95653 l -4.552177,0.956531 z m 9.104354,0.95653 v 0.956531 h -2.731099 z m 96.506252,52.932168 c 0.7041,0 0.14554,0.4762 -0.30386,0.31885 z m -2.73161,0.95653 0.30334,0.31885 c -0.44933,0.15728 -1.0074,-0.31885 -0.30334,-0.31885 z m -2.7311,0.95653 c 0.7041,0 0.14554,0.4762 -0.30386,0.31885 z m -2.73162,0.95653 c 0.7041,0 0.14605,0.4762 -0.30334,0.31885 z m -2.7311,0.95705 c 0.7041,0 0.14605,0.47617 -0.30334,0.31885 z m -84.670283,79.07941 v 12.43594 h 5.462715 v -0.95653 h -4.552176 z m 20.939807,0 c 0,6.42653 1.48867,9.88911 3.119189,10.48773 -0.381383,-0.19776 -0.803271,-0.59738 -1.276924,-1.28209 -1.702472,-2.46109 -0.728102,-6.41575 -1.842265,-9.20564 z m 3.119189,10.48773 c 0.352126,0.1826 0.662709,0.16356 0.944129,0.0155 -0.314449,0.0985 -0.630703,0.0996 -0.944129,-0.0155 z m 0.944129,0.0155 c 1.669535,-0.52281 3.220475,-4.01254 3.220475,-10.50324 h -0.910539 c -1.32e-4,1.32237 -0.336076,9.46478 -2.309936,10.50324 z M 103.9735,194.90593 v 0.95653 h 2.73161 v 11.47941 h 0.91003 c 0,-4.19567 -0.94007,-8.9783 2.73161,-11.47941 z m 20.93981,0 v 12.43594 h 0.91053 z m 44.61123,0 v 12.43594 h 0.91053 v -8.60981 l 8.19382,7.65328 v -11.47941 h -0.91002 v 9.56583 h -0.91054 z m -22.11907,0.17157 c -0.75517,0.0796 -1.53889,0.33775 -2.3275,0.81494 -6.39123,3.86726 -0.48947,14.45382 6.03012,10.32081 5.47968,-3.47377 1.58359,-11.69271 -3.70262,-11.13575 z m -109.292034,0.0537 c -0.754237,0.0663 -1.536514,0.30712 -2.323373,0.7612 -7.049307,4.06803 -0.411735,14.42779 6.066297,10.32081 5.446828,-3.45321 1.536733,-11.5463 -3.742924,-11.08201 z m 159.422314,0.18035 c -0.50308,-0.0184 -0.78366,0.2563 -0.92863,0.69402 l 3.87212,0.81338 c -1.36378,-1.03697 -2.31315,-1.48433 -2.94349,-1.5074 z m -0.92863,0.69402 -0.68006,-0.14315 c 0.15595,0.3605 0.40296,0.75212 0.61805,1.13223 -0.0118,-0.36793 -0.0231,-0.73222 0.062,-0.98908 z m -0.062,0.98908 c 0.0772,2.40934 1.9596,6.76882 3.0241,8.4336 l -5.46271,-0.95653 c 1.24919,2.018 5.7633,4.21786 5.79499,-0.1416 0.0177,-2.44825 -2.05778,-5.0405 -3.35638,-7.33547 z m -181.319683,-1.1007 c -0.417268,0.0786 -0.833813,0.16133 -1.250569,0.24288 l 2.597257,0.68212 c -0.518691,-0.40195 -0.954278,-0.69211 -1.346688,-0.925 z m 23.435779,0.31626 c 5.234184,-9e-4 6.450765,8.84227 0.63562,9.76684 -5.769977,0.9174 -7.321246,-8.42633 -1.734778,-9.64385 0.383765,-0.0836 0.750212,-0.12293 1.099158,-0.12299 z m 109.177834,0.063 c 4.92016,-0.5134 6.86276,7.61063 1.6061,9.49244 -5.9189,2.11888 -8.34291,-7.40318 -2.62878,-9.27023 0.35323,-0.11541 0.69467,-0.18798 1.02268,-0.22221 z m -134.673952,0.0207 c -0.05817,0.0117 -0.116506,0.0224 -0.174666,0.0341 -0.0686,2.21973 2.553563,7.51062 3.581693,9.10022 l -5.462716,-0.95653 c 1.259751,2.04428 5.546637,4.18007 5.689576,-0.1416 0.08949,-2.70555 -2.4306,-5.59079 -3.633887,-8.0362 z m 16.153019,23.48384 1.821078,6.69623 h 0.910022 l 0.910538,-5.7397 z m 7.283276,0 -0.910022,1.91306 z m 4.552177,1.91306 -1.82056,4.78317 z m -6.372737,0.95653 0.910538,0.95653 z m 0.910538,1.91306 2.7311,1.91358 v -0.95705 z"
       transform="matrix(0.16822545,0,0,0.15317925,12.52065,75.323557)"
       inkscape:label="z" />
  </g>
  <g
     id="layer2"
     transform="translate(-14.389535,-76.165714)"
     inkscape:label="solutions">
    <path
       d="m 41.794914,97.698318 c -0.319839,0.319839 -0.40513,0.405129 -0.469097,0.554388 -0.04265,0.106613 -0.08529,0.255871 -0.106613,0.362484 -0.04265,0.106613 -0.06397,0.127935 -0.06397,0.08529 0,-0.106613 0.127935,-0.703646 0.170581,-0.831581 0.04265,-0.106613 0.874226,-0.810259 0.959517,-0.810259 0.106613,0 -0.06397,0.234549 -0.49042,0.639678 z m 6.908522,-0.383807 c -0.106613,0.191904 -0.319839,0.49042 -0.49042,0.682323 -0.170581,0.170581 -0.383807,0.469098 -0.511742,0.661001 -0.234549,0.319839 -0.277194,0.362484 -0.362484,0.362484 -0.02132,0.02132 -0.02132,0 0.02132,-0.08529 0.04265,-0.04264 0.127936,-0.213226 0.213226,-0.362484 0.08529,-0.149259 0.191904,-0.362485 0.277194,-0.469098 0.255871,-0.362484 0.597033,-0.916871 0.703646,-1.15142 0.127935,-0.277194 0.127935,-0.383807 0.04265,-0.938194 -0.06397,-0.362485 -0.06397,-0.40513 -0.234549,-0.639678 -0.277193,-0.447775 -0.490419,-0.575711 -1.15142,-0.618356 -0.234549,-0.02132 -0.49042,-0.04264 -0.618355,-0.06397 -0.106613,-0.04264 -0.277194,-0.06397 -0.49042,-0.06397 -0.213226,0 -0.469097,0.02132 -0.767614,0.06397 -0.511742,0.04265 -0.788936,0.106613 -1.06613,0.234549 -0.213226,0.106613 -0.490419,0.298516 -0.469097,0.341162 0,0 0.08529,-0.02132 0.191904,-0.08529 0.234548,-0.106613 0.618355,-0.191903 0.874226,-0.234548 0.106613,0 0.277194,-0.04265 0.405129,-0.06397 0.149259,-0.02132 0.213226,-0.02132 0.234549,0 0.06397,0.06397 -0.170581,0.149258 -0.49042,0.191903 -0.298516,0.04265 -0.341161,0.06397 -0.831581,0.383807 -0.106613,0.06397 -0.213226,0.127936 -0.255871,0.149258 -0.06397,0 -0.213226,0.06397 -0.362484,0.149258 -0.234549,0.106613 -0.298517,0.127936 -0.682324,0.170581 -0.234548,0.02132 -0.469097,0.06397 -0.533065,0.106613 -0.127935,0.06397 -0.405129,0.40513 -0.554387,0.661001 -0.08529,0.127935 -0.255871,0.362484 -0.469097,0.554387 -0.511743,0.533065 -0.703646,0.89555 -0.703646,1.364647 0,0.213226 0.106613,0.639678 0.341161,1.279356 0.04265,0.06397 0.06397,0.213224 0.08529,0.298514 0.02132,0.14926 0.04265,0.19191 0.255871,0.44778 0.213226,0.21322 0.277194,0.31984 0.362484,0.51174 0.191904,0.4691 0.298517,0.68232 0.447775,0.83158 0.170581,0.17058 0.341161,0.40513 0.618355,0.91687 0.106613,0.21323 0.298517,0.51174 0.426452,0.68233 0.213226,0.29851 0.341162,0.61835 0.447775,1.10877 0.08529,0.40513 0.06397,0.51174 -0.06397,0.68232 -0.06397,0.0853 -0.127936,0.19191 -0.127936,0.2772 -0.04265,0.1919 -0.127935,0.27719 -0.319839,0.31984 -0.213226,0.0426 -0.255871,0.0853 -0.447774,0.34116 -0.06397,0.10661 -0.191904,0.23455 -0.234549,0.25587 -0.106613,0.0426 -0.106613,0.0426 -0.213226,0 l -0.106613,-0.064 0.04265,-0.61835 c 0.04265,-0.9382 0.02132,-1.47126 -0.06397,-1.83375 -0.06397,-0.34116 -0.149259,-0.46909 -0.362485,-0.661 -0.213226,-0.1919 -0.234548,-0.25587 -0.319839,-0.61835 -0.04265,-0.19191 -0.106613,-0.40513 -0.127935,-0.49042 -0.149258,-0.31984 -0.341162,-0.51175 -0.533065,-0.51175 -0.06397,0 -0.127936,0.0213 -0.170581,0.064 -0.106613,0.10662 -0.234549,0.42645 -0.234549,0.661 0,0.12794 -0.02132,0.29852 -0.04265,0.40513 -0.02132,0.17058 -0.02132,0.36249 0,0.89555 0.02132,0.70365 0.02132,0.68232 -0.127935,1.30068 -0.04265,0.1919 -0.106613,0.49042 -0.106613,0.76761 -0.06397,0.70365 -0.106613,0.81026 -0.08529,0.17058 0.04265,-1.322 0.08529,-1.983 0.106613,-2.11093 0.02132,-0.0853 0.04265,-0.36249 0.04265,-0.59704 0.02132,-0.63967 -0.06397,-0.93819 -0.234548,-0.81025 0,0 -0.04265,0.064 -0.06397,0.10661 -0.06397,0.10661 -0.106613,0.78893 -0.08529,1.17274 0.02132,0.40513 -0.04265,0.76761 -0.170581,1.19407 -0.106613,0.31984 -0.149258,0.93819 -0.149258,1.64184 v 0.55438 l 0.127935,0.29852 c 0.08529,0.17058 0.170581,0.44778 0.213226,0.61836 0.277194,1.15142 0.639678,1.57787 1.833744,1.57787 0.469097,-0.0426 0.916872,-0.29852 1.407291,-0.81026 0.170581,-0.17058 0.319839,-0.31984 0.362485,-0.34116 0.02132,-0.0213 0.17058,-0.064 0.277193,-0.0853 0.469098,-0.064 0.724969,-0.23455 1.087453,-0.661 0.277194,-0.34116 0.554387,-0.55439 0.767613,-0.63968 0.255872,-0.0853 0.426452,-0.23455 0.511743,-0.4691 0.149258,-0.27719 0.234548,-0.55439 0.191903,-0.55439 -0.02132,0 -0.106613,0.10662 -0.191903,0.25588 -0.08529,0.14925 -0.191904,0.29851 -0.234549,0.34116 -0.08529,0.064 -0.298516,0.1919 -0.661,0.36248 -0.106613,0.0427 -0.298517,0.19191 -0.49042,0.40513 -0.191903,0.17058 -0.383807,0.36249 -0.469097,0.38381 -0.08529,0.0426 -0.106613,0.064 -0.106613,0.064 0,0 0,-0.0213 0.02132,-0.0427 0.106613,-0.21323 1.194066,-1.25803 1.428614,-1.38597 0.319839,-0.14926 0.383807,-0.27719 0.575711,-0.87423 0.06397,-0.27719 0.149258,-1.10877 0.106613,-1.322 -0.02132,-0.1919 -0.149259,-0.46909 -0.277194,-0.661 -0.06397,-0.0853 -0.149258,-0.23455 -0.170581,-0.34116 -0.06397,-0.23455 -0.127936,-0.36248 -0.277194,-0.51174 -0.06397,-0.0853 -0.170581,-0.27719 -0.234548,-0.44778 -0.149258,-0.34116 -0.40513,-0.74629 -0.724969,-1.10877 -0.149258,-0.17058 -0.213226,-0.27719 -0.234548,-0.38381 -0.02132,-0.14926 -0.04265,-0.17058 -0.234549,-0.27719 -0.08529,-0.0426 -0.106613,-0.064 -0.08529,-0.1919 0,0.0213 0,0.0213 0,0.0426 v -0.0426 c 0,-0.17059 -0.04265,-0.405134 -0.170581,-0.511747 -0.191903,-0.149258 -0.298516,-0.362484 -0.319839,-0.703646 -0.02132,-0.277193 -0.02132,-0.298516 0.06397,-0.469097 0.170581,-0.341161 0.788936,-0.57571 1.108775,-0.661 0.469097,-0.106613 0.469097,-0.106613 0.682323,-0.383807 0.127936,-0.127936 0.234549,-0.277194 0.255871,-0.341162 0.02132,-0.04264 0.106613,-0.106613 0.234549,-0.170581 0.255871,-0.127935 0.277194,-0.127935 0.277194,-0.02132 0,0.127935 -0.08529,0.341161 -0.341162,0.788936 -0.405129,0.746291 -0.511742,1.002162 -0.511742,1.236711 0,0.127935 0.02132,0.234548 0.06397,0.319839 0.08529,0.17058 0.08529,0.17058 -0.02132,0.533066 -0.08529,0.34116 -0.106613,0.53306 -0.02132,0.72497 0.106613,0.1919 0.255871,0.25587 0.447775,0.1919 0.08529,-0.0426 0.255871,-0.14926 0.383807,-0.27719 l 0.234548,-0.19191 h 0.255871 c 0.319839,0 0.383807,-0.064 0.49042,-0.34116 0.06397,-0.149257 0.106613,-0.213224 0.234549,-0.277192 0.127935,-0.08529 0.213226,-0.191904 0.383807,-0.469097 0.127935,-0.191904 0.383806,-0.57571 0.597032,-0.852904 0.426452,-0.57571 0.597033,-0.916872 0.639678,-1.279356 0,-0.106613 0.02132,-0.213226 0.02132,-0.213226 -0.02132,-0.02132 -0.106613,0.127935 -0.213226,0.298516 z m -2.580035,3.838069 c -0.02132,0.0426 -0.04265,0.17058 -0.08529,0.23455 -0.04265,0.10661 -0.04265,0.17058 -0.02132,0.21322 0.06397,0.10662 0.191904,0.0853 0.298517,-0.0426 0.08529,-0.10661 0.106613,-0.14926 0.106613,-0.2772 0,-0.27719 -0.213226,-0.3838 -0.298517,-0.12793 z m -3.091776,-5.458586 c 0.08529,0.02132 0.255871,0.02132 0.277193,-0.02132 0.04265,-0.06397 -0.02132,-0.191903 -0.08529,-0.213226 -0.04265,-0.02132 -0.106613,-0.02132 -0.149258,0 -0.06397,0.02132 -0.08529,0.04264 -0.08529,0.106613 0,0.06397 0.02132,0.106613 0.04265,0.127936 z m 6.247521,0.17058 c -0.02132,-0.127935 -0.106613,-0.255871 -0.170581,-0.255871 -0.02132,0 -0.06397,0.02132 -0.106613,0.04264 -0.06397,0.06397 -0.127935,0.40513 -0.08529,0.533065 0.04265,0.106613 0.191903,0.08529 0.298516,-0.06397 0.06397,-0.106613 0.06397,-0.149259 0.06397,-0.255872 z m -5.351972,4.520396 c 0,-0.0213 0,-0.0426 0,-0.0853 0,0.0426 0,0.064 0,0.0853 z m 11.151734,-0.36249 c -0.149258,0.40513 -0.170581,0.49042 -0.213226,0.87423 -0.04265,0.40513 -0.127935,0.55439 -0.447774,1.02348 -0.319839,0.49042 -0.383807,0.61836 -0.40513,0.9382 -0.06397,0.51174 -0.447774,1.17274 -0.874226,1.53522 -0.149258,0.10662 -0.277194,0.23455 -0.298517,0.2772 0,0.34116 -0.06397,0.61835 -0.191903,0.93819 -0.277194,0.53307 -0.639678,1.04481 -1.279356,1.1301 h -0.255871 l -0.06397,-0.51174 c -0.04265,-0.29852 -0.106613,-0.61836 -0.127936,-0.74629 -0.06397,-0.31984 -0.06397,-0.44778 0.04265,-0.89555 0.04265,-0.23455 0.08529,-0.59704 0.106613,-0.89555 0.04265,-0.57571 0.06397,-0.68232 0.383806,-1.62052 l 0.234549,-0.68232 0.149258,-0.0853 c 0.255871,-0.17058 0.383807,-0.38381 0.383807,-0.61836 0,-0.1919 0.06397,-0.3838 0.127936,-0.49042 0.04265,-0.0426 0.06397,-0.12793 0.06397,-0.234547 0,-0.149258 0.02132,-0.213226 0.106613,-0.319839 0.319839,-0.447774 0.49042,-0.74629 0.597033,-0.916871 0.149258,-0.255871 0.511743,-0.788936 0.682323,-1.023485 0.191904,-0.234549 0.319839,-0.298516 0.597033,-0.298516 0.234549,0 0.597033,0.02132 0.703646,0.04265 0.170581,0.04264 0.383807,0.57571 0.383807,0.938194 0,0.213226 -0.255872,1.236711 -0.40513,1.641839 z m -6.460747,1.7911 c 0.02132,-0.25587 -0.02132,-0.31984 -0.127936,-0.21323 -0.04265,0.0426 -0.08529,0.10662 -0.08529,0.12794 0,0.0213 -0.02132,0.0853 -0.04265,0.12793 -0.08529,0.17059 -0.08529,0.23455 -0.04265,0.29852 0.149258,0.12794 0.255871,0 0.298517,-0.34116 z m 9.040782,-3.560874 c 0,0.319839 -0.08529,0.618355 -0.319839,1.108775 -0.08529,0.191903 -0.127936,0.362484 -0.170581,0.660999 -0.08529,0.4691 -0.319839,1.23671 -0.469097,1.44994 l -0.08529,0.12793 0.02132,-0.17058 c 0,-0.0853 0.06397,-0.36248 0.127936,-0.57571 0.06397,-0.23455 0.17058,-0.61835 0.213226,-0.83158 0.04265,-0.213225 0.127935,-0.511741 0.17058,-0.639677 0.213226,-0.57571 0.213226,-0.661 0.234549,-1.215388 0,-0.277194 0,-0.682323 0.02132,-0.895549 0.02132,-0.191903 0.02132,-0.405129 0,-0.469097 0,-0.06397 -0.106613,-0.255871 -0.191904,-0.383807 -0.106613,-0.170581 -0.191903,-0.319839 -0.191903,-0.383807 0,-0.106613 -0.08529,-0.341161 -0.234549,-0.597033 -0.127935,-0.255871 -0.661,-0.639678 -0.916872,-0.639678 -0.106613,0 -0.213226,-0.06397 -0.277193,-0.191903 -0.149259,-0.277194 -0.447775,-0.405129 -0.938195,-0.341162 -0.362484,0.02132 -0.49042,0.149259 -0.298516,0.319839 0.06397,0.08529 0.106613,0.08529 0.319839,0.08529 l 0.234548,-0.02132 0.04265,0.106613 c 0.04265,0.06397 0.06397,0.127936 0.04265,0.149258 0,0.02132 -0.191904,-0.02132 -0.447775,-0.08529 -0.127935,-0.04264 -0.298516,-0.06397 -0.469097,-0.06397 -0.191903,0 -0.383807,0.02132 -0.49042,0.08529 -0.08529,0.04265 -0.234548,0.106613 -0.341161,0.127935 -0.234549,0.04264 -0.533065,0.213226 -0.874227,0.469097 -0.319839,0.234549 -0.383807,0.277194 -0.49042,0.277194 -0.127935,0 -0.255871,0.149258 -0.469097,0.533065 -0.106613,0.234549 -0.234548,0.40513 -0.341161,0.511743 -0.255872,0.213226 -0.426452,0.405129 -0.575711,0.703645 -0.149258,0.319839 -0.213226,0.426452 -0.405129,0.724969 -0.127936,0.191903 -0.298516,0.49042 -0.554388,1.002162 -0.106613,0.170581 -0.191903,0.405129 -0.234548,0.554387 -0.04265,0.149259 -0.127936,0.362483 -0.170581,0.469093 -0.06397,0.10662 -0.127936,0.25588 -0.127936,0.34117 l -0.02132,0.14925 0.06397,-0.0853 c 0.02132,-0.0426 0.149258,-0.25587 0.255871,-0.49042 0.106613,-0.234544 0.255871,-0.469093 0.298516,-0.554383 0.04265,-0.06397 0.191904,-0.341162 0.341162,-0.618356 0.127935,-0.277193 0.277194,-0.533065 0.319839,-0.57571 0.08529,-0.08529 0.08529,-0.06397 0,0.08529 -0.06397,0.08529 -0.213226,0.362484 -0.319839,0.618355 -0.127936,0.255871 -0.255871,0.533065 -0.277194,0.597033 -0.08529,0.127935 -0.234549,0.57571 -0.298516,0.81026 -0.02132,0.0853 -0.08529,0.23455 -0.149259,0.31984 -0.17058,0.27719 -0.298516,0.57571 -0.405129,0.95951 -0.06397,0.19191 -0.170581,0.44778 -0.234549,0.57571 -0.04265,0.10662 -0.149258,0.36249 -0.213226,0.53307 -0.08529,0.27719 -0.106613,0.38381 -0.106613,0.661 0,0.1919 -0.02132,0.51174 -0.06397,0.68232 -0.04265,0.2772 -0.04265,0.42646 -0.02132,0.98084 0.02132,0.34116 0.06397,0.74629 0.08529,0.91687 0.04265,0.14926 0.06397,0.34117 0.08529,0.40513 0,0.064 0.02132,0.12794 0.04265,0.12794 0.02132,0 0.127936,-0.70365 0.127936,-1.06613 0,-0.1919 0.02132,-0.42645 0.02132,-0.53307 0.127936,-0.89554 0.191904,-1.10877 0.255871,-1.36464 0.170581,-0.59703 0.191904,-0.68232 0.234549,-0.68232 0.08529,0 0.08529,0.10661 0,0.36248 -0.127936,0.38381 -0.213226,0.72497 -0.277194,1.25803 -0.08529,0.49042 -0.08529,0.55439 -0.04265,1.42862 0.02132,0.49042 0.06397,1.02348 0.08529,1.17274 0.02132,0.17058 0.04265,0.38381 0.04265,0.49042 0,0.14926 0.02132,0.21323 0.08529,0.29852 0.04265,0.064 0.170581,0.25587 0.255871,0.44777 0.08529,0.17058 0.191904,0.34116 0.255871,0.38381 0.149259,0.12793 0.447775,0.29851 0.661001,0.40513 0.106613,0.064 0.234549,0.14926 0.255871,0.17058 0.02132,0.0213 0.106613,0.10661 0.191904,0.14926 0.149258,0.10661 0.255871,0.10661 0.469097,0.0213 0.191903,-0.10661 0.383807,-0.17058 0.618355,-0.23455 0.277194,-0.064 0.895549,-0.34116 1.023485,-0.44777 0.405129,-0.2772 0.788936,-0.59704 1.172743,-0.91688 0.234548,-0.23455 0.277194,-0.25587 0.511742,-0.29851 0.106613,0 0.213226,-0.0213 0.255871,-0.064 0.08529,-0.0426 0.149259,-0.25587 0.106613,-0.38381 -0.02132,-0.10661 -0.02132,-0.12793 0.08529,-0.25587 0.554387,-0.68232 0.724968,-1.00216 0.959517,-1.74845 0.106613,-0.2772 0.234548,-0.59703 0.319839,-0.74629 0.234548,-0.42645 0.341161,-0.63968 0.426452,-0.98084 0.06397,-0.19191 0.170581,-0.42645 0.277194,-0.61836 0.106613,-0.1919 0.213226,-0.44777 0.319839,-0.72497 0.149258,-0.53306 0.17058,-0.57571 0.213226,-1.19406 0.02132,-0.49042 0.106613,-0.78894 0.298516,-1.364648 0.127936,-0.341162 0.170581,-0.682323 0.149258,-1.108775 -0.02132,-0.469097 -0.08529,-0.639678 -0.08529,-0.255871 z m 0.255871,-1.492582 c -0.08529,-0.04265 -0.191903,0.06397 -0.213226,0.191903 0,0.08529 -0.02132,0.213226 -0.04265,0.298516 -0.02132,0.08529 -0.04265,0.191904 -0.02132,0.234549 0,0.02132 0.04265,0.04265 0.106613,0.04265 0.06397,-0.02132 0.08529,-0.04265 0.106613,-0.106613 0.04265,-0.149258 0.08529,-0.255871 0.127936,-0.362484 0.06397,-0.127936 0.02132,-0.277194 -0.06397,-0.298516 z M 56.763375,108.0611 c -0.02132,-0.0853 -0.06397,-0.0853 -0.255871,0 -0.170581,0.064 -0.234549,0.17058 -0.170581,0.31984 0.02132,0.0427 0.06397,0.064 0.127936,0.064 0.149258,0 0.341161,-0.23455 0.298516,-0.38381 z m 8.166556,-1.10877 c -0.02132,-0.23455 -0.213226,-0.38381 -0.597033,-0.49042 -0.08529,-0.0213 -0.298516,-0.0853 -0.426452,-0.14926 -0.298516,-0.10661 -0.639678,-0.17058 -1.044807,-0.17058 -0.341162,0 -0.724969,0.0426 -1.151421,0.12793 -0.426452,0.0853 -0.426452,0.0853 -0.597032,0.0427 -0.127936,-0.0427 -0.234549,-0.064 -0.319839,-0.064 -0.149259,0 -0.255872,0.0427 -0.426452,0.12794 -0.191904,0.10661 -0.511743,0.23454 -0.597033,0.23454 -0.04265,0 0.04264,-0.21322 0.255871,-0.70364 0.106613,-0.1919 0.255871,-0.63968 0.383807,-0.98084 0.127935,-0.38381 0.277194,-0.76761 0.362484,-0.95952 0.106613,-0.17058 0.213226,-0.44777 0.277194,-0.63968 0.149258,-0.46909 0.234548,-0.63967 0.426452,-0.89554 0.213226,-0.2772 0.234548,-0.34117 0.213226,-0.55439 -0.02132,-0.12794 0,-0.19191 0.06397,-0.36249 0.234548,-0.55438 0.639678,-1.535224 0.746291,-1.876386 0.08529,-0.213226 0.234548,-0.597032 0.341161,-0.874226 0.682323,-1.727131 0.788936,-2.025647 0.724968,-2.302841 -0.02132,-0.106613 -0.06397,-0.277194 -0.08529,-0.426452 0,-0.170581 -0.04265,-0.319839 -0.08529,-0.405129 -0.04265,-0.106613 -0.08529,-0.255871 -0.106613,-0.40513 -0.04265,-0.447774 -0.170581,-0.597032 -0.469097,-0.597032 -0.149259,0 -0.149259,0 -0.511743,0.405129 -0.04265,0.04264 -0.08529,0.08529 -0.106613,0.106613 -0.106613,0.08529 -0.426452,0.597033 -0.57571,0.895549 -0.127936,0.298517 -0.149258,0.383807 -0.170581,0.639678 -0.06397,0.618356 -0.362484,1.215388 -0.639678,1.769776 -0.06397,0.149258 -0.149258,0.362484 -0.213226,0.49042 -0.127935,0.234548 -0.447774,1.044807 -0.639678,1.535231 -0.04265,0.10661 -0.08529,0.1919 -0.106613,0.1919 l -0.02132,-0.0213 c 0,-0.31984 1.172743,-3.646168 1.535227,-4.349814 0.08529,-0.191903 0.191903,-0.490419 0.234548,-0.661 0.04265,-0.149258 0.08529,-0.341162 0.106613,-0.40513 0.06397,-0.127935 0.04265,-0.234548 -0.08529,-0.319839 -0.04265,-0.02132 -0.127936,-0.04264 -0.170581,-0.04264 -0.170581,0.04264 -0.511742,0.831582 -0.554387,1.023485 -0.04265,0.149258 -0.106613,0.319839 -0.149259,0.362484 -0.02132,0.04265 -0.08529,0.149258 -0.127935,0.234549 -0.106613,0.191903 -0.469097,1.300678 -0.597033,1.705808 -0.04265,0.149258 -0.127936,0.383807 -0.191903,0.511742 -0.106613,0.170581 -0.127936,0.277194 -0.149259,0.49042 -0.04265,0.469097 -0.277193,1.17274 -0.639678,1.96168 -0.277193,0.59703 -0.341161,0.76761 -0.405129,1.17274 -0.06397,0.36249 -0.191903,0.661 -0.447775,1.04481 -0.277193,0.38381 -0.362484,0.61835 -0.405129,0.95952 -0.04265,0.42645 -0.191903,1.0448 -0.383807,1.57787 -0.234548,0.72497 -0.341161,1.10877 -0.341161,1.21539 0.02132,0.1919 0.149258,0.40513 0.341161,0.55438 l 0.06397,0.0426 -0.106613,0.12794 c -0.127936,0.10661 -0.149258,0.21322 -0.08529,0.40512 0.04265,0.14926 -0.08529,0.42646 -0.255872,0.55439 -0.298516,0.21323 -0.426452,0.49042 -0.298516,0.661 0.06397,0.0853 0.127936,0.0853 0.469097,0.0426 0.127936,-0.0213 0.426452,-0.0426 0.661001,-0.064 0.511742,-0.0426 0.724968,-0.0853 1.15142,-0.27719 0.149258,-0.064 0.40513,-0.12794 0.511743,-0.14926 0.127935,-0.0213 0.447774,-0.10661 0.703645,-0.19191 0.255872,-0.0853 0.49042,-0.14925 0.511743,-0.14925 0,0 0.02132,0.0426 0.02132,0.0853 0,0.0426 0.02132,0.0853 0.06397,0.0853 0.08529,0.0426 0.319839,0.0213 0.447775,-0.0213 0.810259,-0.29851 1.492582,-0.46909 1.791098,-0.46909 0.06397,0 0.191903,0.0213 0.319839,0.0853 0.277194,0.10661 0.362484,0.10661 0.447775,0 0.04265,-0.0426 0.191903,-0.17058 0.341161,-0.25587 l 0.255871,-0.14926 0.04265,-0.17058 c 0.04264,-0.21323 0.127935,-0.36249 0.277193,-0.4691 0.127936,-0.0853 0.213226,-0.27719 0.191904,-0.44777 z m 1.343322,0.81025 c -0.04264,0 -0.341161,-0.55438 -0.405129,-0.76761 -0.170581,-0.661 -0.170581,-1.983 0,-2.08961 0.06397,-0.0426 0.08529,0 0.02132,0.31984 -0.06397,0.36248 -0.06397,0.87422 0,1.36464 0.04264,0.38381 0.08529,0.55439 0.298516,0.9382 0.06397,0.12793 0.106613,0.23454 0.08529,0.23454 z m 6.546038,-1.21538 c -0.127935,0 -0.277193,0.36248 -0.17058,0.40513 0.08529,0.0213 0.106613,0.0213 0.17058,-0.064 0.149259,-0.12794 0.149259,-0.34116 0,-0.34116 z m 3.667488,-11.194368 c -0.06397,-0.127936 -0.127936,-0.191903 -0.213226,-0.234549 -0.149259,-0.08529 -0.191904,-0.17058 -0.234549,-0.490419 -0.06397,-0.383807 -0.170581,-0.554388 -0.341162,-0.554388 -0.06397,0 -0.106613,0.04265 -0.191903,0.170581 -0.191903,0.277194 -0.383807,0.447774 -0.597033,0.554387 -0.277194,0.127936 -0.469097,0.298517 -0.57571,0.511743 -0.04265,0.08529 -0.127936,0.234548 -0.213226,0.319839 -0.170581,0.213226 -0.298516,0.447774 -0.405129,0.703646 -0.04265,0.106613 -0.213226,0.469097 -0.362485,0.788936 -0.298516,0.639678 -0.298516,0.661 -0.341161,1.15142 -0.02132,0.298517 -0.04265,0.362484 -0.191904,0.703646 -0.17058,0.362484 -0.362484,0.916872 -0.426452,1.258036 -0.04264,0.14926 -0.04264,0.21322 0,0.36248 0.06397,0.21323 0.04265,0.25587 -0.234548,0.55439 -0.277194,0.31984 -0.341162,0.4691 -0.852904,1.983 -0.277194,0.87423 -0.724968,1.91903 -0.938194,2.21755 -0.06397,0.0853 -0.170581,0.23455 -0.234549,0.34116 -0.127936,0.25587 -0.49042,0.61836 -0.724968,0.76762 -0.08529,0.064 -0.191904,0.12793 -0.213226,0.17058 -0.127936,0.14926 -0.298517,0.14926 -0.40513,0.0426 -0.02132,-0.0426 -0.08529,-0.0853 -0.149258,-0.0853 -0.405129,-0.12793 -0.661001,-0.51174 -0.661001,-0.91687 -0.06397,-0.14926 0,-0.49042 0.106613,-0.74629 0.02132,-0.0853 0.04265,-0.17058 0.04265,-0.21323 0,-0.0426 0.04264,-0.0853 0.106613,-0.10661 0.234548,-0.12794 0.277193,-0.23455 0.17058,-0.40513 -0.06397,-0.10661 -0.06397,-0.14926 0.06397,-0.40513 0.04264,-0.10661 0.127936,-0.29852 0.149258,-0.44777 0.04265,-0.12794 0.127936,-0.34116 0.170581,-0.4691 0.04264,-0.12794 0.06397,-0.29852 0.06397,-0.40513 0,-0.21323 0.02132,-0.25587 0.255871,-0.74629 0.127936,-0.25587 0.127936,-0.25587 0.06397,-0.38381 -0.106613,-0.27719 -0.02132,-0.46909 0.191903,-0.55439 l 0.127936,-0.0426 c 0,0 0.191903,-0.55439 0.426452,-1.236711 0.234549,-0.682323 0.447775,-1.364646 0.49042,-1.492582 0.06397,-0.213226 0.106613,-0.319839 0.234548,-0.49042 0.191904,-0.255871 0.255871,-0.447774 0.255871,-0.724968 0,-0.170581 0,-0.213226 -0.08529,-0.298517 -0.06397,-0.06397 -0.127936,-0.17058 -0.149258,-0.277193 -0.06397,-0.127936 -0.06397,-0.191904 -0.02132,-0.319839 0.04265,-0.127936 0.04265,-0.149259 -0.02132,-0.234549 -0.06397,-0.08529 -0.127936,-0.08529 -0.383807,-0.02132 l -0.08529,0.02132 0.02132,-0.170581 c 0,-0.127935 0,-0.170581 -0.06397,-0.255871 -0.04265,-0.04264 -0.08529,-0.08529 -0.127935,-0.08529 -0.04264,0 -0.04264,-0.02132 0,-0.149259 0.06397,-0.106613 0,-0.234548 -0.149258,-0.298516 -0.127936,-0.04265 -0.255872,-0.04265 -0.383807,0.06397 -0.06397,0.04264 -0.127936,0.06397 -0.213226,0.04264 -0.06397,-0.02132 -0.127936,0 -0.191904,0.04265 -0.106613,0.106613 -0.405129,0.724969 -0.405129,0.874227 0,0.149258 -0.06397,0.277194 -0.319839,0.831581 -0.149258,0.341162 -0.213226,0.533065 -0.255871,0.682323 0,0.106613 -0.04264,0.255872 -0.06397,0.298517 0,0.06397 -0.04264,0.191903 -0.04264,0.277194 -0.02132,0.149258 -0.06397,0.255871 -0.149258,0.426452 -0.08529,0.106613 -0.170581,0.298516 -0.191904,0.405129 -0.04265,0.08529 -0.06397,0.170581 -0.08529,0.191903 -0.06397,0.02132 -0.06397,-0.191903 0.02132,-0.426452 0.02132,-0.127935 0.06397,-0.277193 0.08529,-0.383806 l 0.02132,-0.149259 -0.106613,0.06397 c -0.106613,0.06397 -0.362484,0.40513 -0.405129,0.533065 0,0.04265 -0.02132,0.234549 0,0.40513 0,0.255871 0,0.362484 -0.08529,0.639677 -0.08529,0.362485 -0.341162,1.343329 -0.511743,1.513909 -0.02132,0.0213 -0.06397,0.0426 -0.127935,0.064 -0.127936,0.0213 -0.191904,0.12794 -0.213226,0.38381 -0.02132,0.17058 0,0.23455 0.04264,0.29852 0.04265,0.064 0.04265,0.10661 -0.213226,0.81026 -0.213226,0.661 -0.234549,0.76761 -0.255871,1.06613 -0.02132,0.27719 -0.06397,0.40513 -0.106613,0.51174 -0.298517,0.55439 -0.426452,1.1301 -0.447775,1.83374 -0.02132,0.49042 -0.02132,0.55439 0.08529,1.00216 0.04265,0.2772 0.127936,0.57571 0.170581,0.68233 0.127936,0.25587 0.618356,0.95951 0.852904,1.17274 0.213226,0.21323 0.213226,0.21323 0.533065,0.29852 0.234549,0.0426 0.362484,0.0853 0.447775,0.14925 0.191903,0.14926 0.426452,0.21323 0.852904,0.25588 0.213226,0.0213 0.383807,0.0426 0.405129,0.064 h 0.533065 c 0.618356,-0.0213 0.639678,-0.0213 1.023485,-0.31984 0.149258,-0.10661 0.341162,-0.23454 0.426452,-0.29851 0.341161,-0.19191 0.661,-0.4691 1.108775,-0.89555 0.426452,-0.42645 0.511742,-0.53307 0.383807,-0.55439 -0.06397,0 -0.49042,0.34116 -0.618356,0.51174 -0.08529,0.10662 -0.191903,0.19191 -0.298516,0.25588 -0.106613,0.064 -0.277194,0.14925 -0.383807,0.21322 -0.447774,0.27719 -0.57571,0.34116 -0.852904,0.38381 -0.17058,0.0426 -0.319839,0.064 -0.341161,0.0853 -0.08529,0.0426 -0.234549,0.0426 -0.298517,0 l -0.04264,-0.0426 c 0.04264,-0.0426 0.341162,-0.10661 0.57571,-0.12793 0.149259,0 0.319839,-0.0427 0.362485,-0.064 0.17058,-0.064 0.938194,-0.661 1.300678,-0.98084 0.127936,-0.14926 0.341162,-0.31984 0.426452,-0.38381 0.08529,-0.0853 0.213226,-0.21322 0.255871,-0.29851 0.04265,-0.0853 0.234549,-0.36249 0.426452,-0.59704 0.170581,-0.25587 0.362484,-0.49042 0.383807,-0.53306 0.149258,-0.25587 0.874227,-2.11094 1.279356,-3.36897 0.127936,-0.36249 0.383807,-1.04481 0.661001,-1.7911 0.08529,-0.23455 0.213226,-0.61836 0.255871,-0.81026 0.08529,-0.298515 0.127935,-0.447773 0.277194,-0.682322 0.469097,-0.788936 0.490419,-0.852904 0.597032,-1.172743 0.02132,-0.106613 0.08529,-0.405129 0.127936,-0.682323 0.06397,-0.319839 0.127936,-0.618355 0.213226,-0.852904 0.08529,-0.213226 0.149258,-0.447775 0.191903,-0.682323 0.08529,-0.277194 0.06397,-0.341162 -0.06397,-0.597033 z m -5.629167,-0.597033 c 0.170581,-0.149258 0.170581,-0.170581 0.170581,-0.341161 0,-0.191904 -0.06397,-0.298517 -0.213226,-0.298517 -0.127936,0 -0.277194,0.149258 -0.277194,0.298517 0,0.06397 -0.02132,0.127935 -0.08529,0.213226 -0.127936,0.127935 -0.127936,0.213226 -0.04265,0.298516 0.106613,0.106613 0.191903,0.08529 0.447774,-0.170581 z m 9.829712,3.347648 c -0.08529,0.191904 -0.149258,0.426452 -0.149258,0.511743 -0.02132,0.106613 -0.106613,0.319839 -0.170581,0.511742 -0.08529,0.191903 -0.213226,0.554388 -0.319839,0.810259 -0.08529,0.234549 -0.191903,0.511739 -0.234548,0.575709 l -0.06397,0.12794 v -0.12794 c 0.02132,-0.10661 0.106613,-0.31984 0.511742,-1.300678 0.106613,-0.255871 0.149259,-0.426451 0.170581,-0.57571 0,-0.255871 0.170581,-0.831581 0.255871,-0.895549 0.02132,-0.04264 0.06397,-0.04264 0.08529,-0.02132 0.02132,0.04265 -0.02132,0.149258 -0.08529,0.383806 z m 6.929845,-2.281518 c -0.127935,-0.127935 -0.170581,-0.234548 -0.170581,-0.341161 0,-0.08529 -0.149258,-0.255872 -0.298516,-0.341162 -0.213226,-0.106613 -0.426452,-0.127936 -1.002162,-0.149258 -0.319839,0 -1.023485,-0.02132 -1.599195,-0.04264 -0.724969,-0.04265 -1.343324,-0.04265 -1.876389,-0.04265 -0.554387,0 -1.023485,0 -1.492582,0.04265 -0.916872,0.04264 -0.959517,0.04264 -1.64184,0.02132 -0.49042,0 -0.511742,0 -0.597033,0.06397 -0.04265,0.04264 -0.04265,0.08529 -0.04265,0.127936 0.02132,0.04265 0.04265,0.04265 0.170581,0.02132 0.106613,0 0.319839,0.02132 0.554387,0.06397 0.362485,0.04265 0.469098,0.06397 1.215389,0.02132 0.788936,-0.02132 0.938194,0 0.852904,0.06397 0,0.02132 -0.298517,0.04265 -0.618356,0.06397 -1.15142,0.08529 -1.55655,0.106613 -1.833743,0.170581 -0.298517,0.04265 -0.362485,0.04265 -0.661001,-0.08529 -0.08529,-0.02132 -0.255871,-0.04265 -0.426452,-0.04265 h -0.277194 l -0.191903,0.213226 c -0.149258,0.127936 -0.213226,0.234549 -0.255871,0.319839 -0.02132,0.08529 -0.04265,0.149259 -0.04265,0.170581 0,0.04265 -0.08529,0.08529 -0.191903,0.127936 -0.341162,0.149258 -0.362484,0.170581 -0.447775,0.319839 -0.149258,0.234548 -0.191903,0.447774 -0.149258,0.661 0.04265,0.341162 0.02132,0.341162 0.895549,0.341162 1.47126,0.04264 1.449937,0.04264 1.791099,-0.08529 0.362484,-0.106613 0.447774,-0.127936 0.788936,-0.149259 0.341162,-0.04265 0.447775,0 0.405129,0.127936 -0.02132,0.149258 -0.298516,0.938194 -0.362484,1.06613 -0.04265,0.08529 -0.04265,0.170581 -0.02132,0.341162 0.02132,0.255871 -0.04265,0.426451 -0.255872,0.639677 -0.127935,0.149259 -0.127935,0.170581 -0.469097,1.087449 -0.127935,0.31984 -0.298516,0.7463 -0.405129,0.95952 -0.106613,0.1919 -0.234549,0.53307 -0.298517,0.72497 -0.08529,0.31984 -0.149258,0.44777 -0.341161,0.74629 -0.298517,0.44777 -0.362484,0.61836 -0.511743,1.42861 -0.127935,0.59704 -0.149258,0.68233 -0.319839,1.02349 l -0.191903,0.36248 v 0.31984 c 0,0.42645 -0.06397,0.61836 -0.341162,1.10878 -0.255871,0.44777 -0.362484,0.70364 -0.362484,0.8529 0,0.0427 0.04265,0.19191 0.08529,0.31984 0.08529,0.1919 0.106613,0.25587 0.06397,0.36248 0,0.064 -0.04265,0.21323 -0.04265,0.34117 -0.02132,0.23455 -0.02132,0.25587 0.08529,0.36248 0.08529,0.0853 0.106613,0.0853 0.234548,0.0853 0.127936,-0.0213 0.191904,-0.064 0.319839,-0.17058 0.08529,-0.0853 0.191904,-0.17058 0.255871,-0.1919 0.106613,-0.064 0.40513,-0.12794 0.575711,-0.12794 0.213226,0 0.277193,-0.10661 0.277193,-0.36248 0,-0.10662 0.04265,-0.21323 0.08529,-0.31984 0.04264,-0.0853 0.08529,-0.25587 0.106613,-0.36249 0.02132,-0.14925 0.08529,-0.31984 0.319839,-0.81025 0.170581,-0.31984 0.341161,-0.68233 0.362484,-0.76762 0.04265,-0.10661 0.08529,-0.1919 0.08529,-0.1919 0.06397,-0.0427 0.04265,0.10661 -0.106613,0.4691 -0.277193,0.74629 -0.490419,1.38596 -0.490419,1.53522 0,0.064 -0.02132,0.21323 -0.04265,0.31984 -0.02132,0.0853 -0.04264,0.17058 -0.04264,0.1919 h 0.08529 c 0.149258,0 0.511742,-0.57571 0.724968,-1.19406 0.06397,-0.14926 0.149258,-0.36248 0.191903,-0.49042 0.04265,-0.10661 0.149259,-0.36248 0.213226,-0.55439 0.127936,-0.31984 0.127936,-0.36248 0.127936,-0.57571 l -0.04264,-0.25587 0.170581,-0.23455 c 0.106613,-0.12793 0.234548,-0.40513 0.319839,-0.61835 0.08529,-0.23455 0.213226,-0.51175 0.277193,-0.63968 0.106613,-0.17058 0.170581,-0.38381 0.298517,-0.89555 0.191903,-0.74629 0.213226,-0.81026 0.383807,-1.00216 0.17058,-0.17058 0.234548,-0.36249 0.234548,-0.57571 0,-0.12794 0.04265,-0.25587 0.170581,-0.55439 0.191903,-0.42645 0.511742,-1.322002 0.554388,-1.55655 0.02132,-0.106613 0.04265,-0.255872 0.02132,-0.362485 l -0.02132,-0.191903 0.191903,-0.170581 c 0.234549,-0.213226 0.277194,-0.319839 0.383807,-0.746291 0.06397,-0.383806 0.106613,-0.490419 0.213226,-0.57571 0.04264,-0.04264 0.06397,-0.08529 0.06397,-0.08529 0,-0.06397 -0.341161,-0.106613 -0.597032,-0.08529 -0.170581,0 -0.255871,0 -0.255871,-0.02132 0,-0.06397 0.149258,-0.08529 0.810258,-0.170581 0.362484,-0.06397 0.767614,-0.127936 0.895549,-0.149258 0.191904,-0.06397 0.319839,-0.06397 1.172743,-0.04264 0.874227,0 0.98084,0 1.06613,-0.04265 0.04265,-0.04265 0.06397,-0.06397 0.06397,-0.08529 -0.02132,0 -0.383807,-0.02132 -0.810259,-0.04265 -0.661,0 -0.767613,-0.02132 -0.682323,-0.04264 0.06397,-0.02132 0.426452,-0.06397 0.831582,-0.106613 0.383806,-0.02132 0.767613,-0.04265 0.810258,-0.06397 0.04265,0 0.170581,-0.06397 0.277194,-0.149258 0.127936,-0.08529 0.213226,-0.127936 0.298517,-0.127936 0.234548,0 0.469097,-0.06397 0.511742,-0.149258 0.08529,-0.127936 0.06397,-0.319839 -0.06397,-0.447775 z M 76.721321,96.0778 c 0.08529,0.06397 0.149258,0.06397 0.255871,0 0.08529,-0.06397 0.127936,-0.17058 0.106613,-0.234548 0,-0.02132 -0.06397,-0.04265 -0.170581,-0.04265 -0.234548,0 -0.341161,0.17058 -0.191903,0.277193 z m 1.791098,13.28398 c -0.149258,0.064 -0.149258,0.0853 -0.149258,0.27719 -0.02132,0.12794 0,0.19191 0.02132,0.21323 0.149258,0.0853 0.362484,-0.12794 0.319839,-0.34116 -0.02132,-0.17058 -0.04265,-0.19191 -0.191904,-0.14926 z M 88.17158,98.12477 c -0.127936,0.277194 -0.277194,0.661001 -0.554388,1.428614 -0.04265,0.149258 -0.106613,0.298516 -0.149258,0.362484 -0.04264,0 0.04265,-0.298516 0.127935,-0.554387 0.277194,-0.661001 0.533065,-1.513905 0.575711,-1.833744 0.02132,-0.277194 0.127935,-0.149258 0.127935,0.170581 0.02132,0.106613 -0.02132,0.213226 -0.127935,0.426452 z m -1.577873,10.91717 c -0.02132,0.0427 -0.06397,0.14926 -0.106613,0.25587 -0.106613,0.19191 -0.106613,0.25587 -0.02132,0.34116 0.08529,0.0853 0.08529,0.0853 0.191903,0.0213 0.149258,-0.064 0.298516,-0.49042 0.213226,-0.63968 -0.06397,-0.10661 -0.234549,-0.10661 -0.277194,0.0213 z m 4.499069,-13.006785 c -0.298517,-0.57571 -0.362484,-0.661 -0.469097,-0.703646 -0.08529,-0.02132 -0.106613,-0.106613 -0.08529,-0.191903 0.06397,-0.426452 0.02132,-0.597033 -0.191903,-0.554388 -0.08529,0 -0.170581,0.06397 -0.298517,0.213226 -0.106613,0.106613 -0.191903,0.213226 -0.191903,0.234549 0,0.04264 -0.341162,0.234549 -0.405129,0.234549 -0.341162,0 -1.194066,0.682323 -1.194066,1.023484 0,0.127936 -0.08529,0.234549 -0.298516,0.511743 -0.191904,0.234548 -0.213226,0.319839 -0.149259,0.511742 0.08529,0.191904 0.04265,0.703646 -0.06397,0.916872 -0.04265,0.08529 -0.127936,0.319839 -0.170581,0.49042 -0.06397,0.191903 -0.127936,0.383807 -0.170581,0.426452 -0.04264,0.06397 -0.08529,0.106613 -0.08529,0.127935 0,0.170581 -0.08529,0.469097 -0.255872,0.78894 -0.106613,0.23455 -0.213226,0.46909 -0.234548,0.55438 -0.04264,0.10662 -0.06397,0.14926 -0.170581,0.19191 -0.191903,0.10661 -0.255871,0.23455 -0.170581,0.3838 0.08529,0.17059 0.08529,0.31984 0,0.70365 -0.04264,0.1919 -0.127935,0.44777 -0.170581,0.57571 -0.04265,0.12794 -0.08529,0.34116 -0.106613,0.44777 -0.06397,0.31984 -0.149258,0.55439 -0.255871,0.68233 -0.06397,0.0426 -0.127935,0.12793 -0.149258,0.1919 -0.06397,0.12794 -0.170581,0.57571 -0.170581,0.78894 0,0.10661 -0.02132,0.27719 -0.08529,0.44777 -0.06397,0.14926 -0.106613,0.29852 -0.106613,0.34116 0,0.14926 -0.08529,0.40513 -0.170581,0.53307 -0.06397,0.0853 -0.149258,0.27719 -0.191903,0.42645 -0.04264,0.14926 -0.106613,0.36248 -0.170581,0.51174 -0.04264,0.12794 -0.127936,0.38381 -0.170581,0.55439 -0.08529,0.27719 -0.08529,0.36248 -0.08529,0.70365 0,0.27719 0.02132,0.44777 0.06397,0.57571 0.04264,0.12793 0.06397,0.25587 0.06397,0.31984 0,0.14925 0.06397,0.34116 0.149259,0.42645 0.06397,0.0853 0.106613,0.0853 0.213226,0.064 0.17058,-0.0213 0.277193,-0.10662 0.533065,-0.44778 0.213225,-0.29852 0.213225,-0.31984 0.405129,-0.34116 0.298516,-0.0426 0.57571,-0.23455 0.597033,-0.44778 0.04264,-0.21322 0.149258,-0.42645 0.319839,-0.661 0.234548,-0.31983 0.298516,-0.44777 0.298516,-0.70364 0,-0.12794 0.02132,-0.29852 0.08529,-0.53307 0.06397,-0.17058 0.149259,-0.44777 0.191904,-0.61835 0.106613,-0.31984 0.213226,-0.53307 0.255871,-0.4691 0,0.0213 -0.04264,0.1919 -0.08529,0.38381 -0.04265,0.1919 -0.127936,0.49042 -0.149259,0.63968 -0.04264,0.17058 -0.08529,0.36248 -0.106613,0.42645 -0.02132,0.064 -0.04264,0.21322 -0.06397,0.36248 -0.02132,0.19191 -0.08529,0.38381 -0.170581,0.61836 -0.149258,0.3838 -0.170581,0.55438 -0.06397,0.55438 0.106613,0 0.298516,-0.42645 0.298516,-0.51174 0,-0.0213 0.04265,-0.12793 0.106613,-0.23455 0.170581,-0.29851 0.682324,-1.87639 0.682324,-2.08961 0,-0.0427 0.08529,-0.25587 0.191903,-0.44778 0.277194,-0.55438 0.341162,-0.76761 0.298516,-0.93819 -0.06397,-0.17058 0,-0.34116 0.298517,-0.8529 l 0.191903,-0.38381 0.04264,-0.38381 c 0.06397,-0.70364 0.447775,-1.66316 0.746291,-2.32416 l 0.106613,-0.341163 -0.08529,-0.319839 c -0.04265,-0.17058 -0.08529,-0.362484 -0.08529,-0.405129 0,-0.127935 0.08529,-0.255871 0.234548,-0.383807 0.191904,-0.127935 0.426452,-0.639678 0.682323,-1.364646 0.106613,-0.298516 0.191904,-0.597033 0.234549,-0.639678 0.06397,-0.149258 0.04265,-0.447775 -0.04264,-0.597033 z m -0.40513,2.409454 c -0.08529,0 -0.255871,0.191903 -0.298516,0.319839 0,0.06397 -0.02132,0.127936 -0.04264,0.127936 -0.04265,0.04264 -0.04265,0.149258 0.02132,0.213226 0.04265,0.04265 0.08529,0.06397 0.106613,0.06397 0.191904,0 0.447775,-0.341161 0.426452,-0.533065 -0.02132,-0.08529 -0.127935,-0.191903 -0.213226,-0.191903 z m 6.737948,1.577871 c -0.149259,0.40513 -0.170581,0.49042 -0.213226,0.87423 -0.04265,0.40513 -0.127936,0.55439 -0.447775,1.02348 -0.319839,0.49042 -0.383807,0.61836 -0.405129,0.9382 -0.06397,0.51174 -0.447775,1.17274 -0.874227,1.53522 -0.149258,0.10662 -0.277194,0.23455 -0.298516,0.2772 0,0.34116 -0.06397,0.61835 -0.191904,0.93819 -0.277193,0.53307 -0.639678,1.04481 -1.279356,1.1301 H 93.45959 l -0.06397,-0.51174 c -0.04265,-0.29852 -0.106613,-0.61836 -0.127935,-0.74629 -0.06397,-0.31984 -0.06397,-0.44778 0.04265,-0.89555 0.04264,-0.23455 0.08529,-0.59704 0.106613,-0.89555 0.04265,-0.57571 0.06397,-0.68232 0.383807,-1.62052 l 0.234548,-0.68232 0.149259,-0.0853 c 0.255871,-0.17058 0.383806,-0.38381 0.383806,-0.61836 0,-0.1919 0.06397,-0.3838 0.127936,-0.49042 0.04264,-0.0426 0.06397,-0.12793 0.06397,-0.234547 0,-0.149258 0.02132,-0.213226 0.106613,-0.319839 0.319839,-0.447774 0.49042,-0.74629 0.597033,-0.916871 0.149258,-0.255871 0.511742,-0.788936 0.682323,-1.023485 0.191903,-0.234549 0.319839,-0.298516 0.597032,-0.298516 0.234549,0 0.597033,0.02132 0.703646,0.04265 0.170581,0.04264 0.383807,0.57571 0.383807,0.938194 0,0.213226 -0.255871,1.236711 -0.405129,1.641839 z m -6.460748,1.7911 c 0.02132,-0.25587 -0.02132,-0.31984 -0.127936,-0.21323 -0.04265,0.0426 -0.08529,0.10662 -0.08529,0.12794 0,0.0213 -0.02132,0.0853 -0.04265,0.12793 -0.08529,0.17059 -0.08529,0.23455 -0.04264,0.29852 0.149258,0.12794 0.255871,0 0.298516,-0.34116 z m 9.040784,-3.560874 c 0,0.319839 -0.08529,0.618355 -0.319841,1.108775 -0.08529,0.191903 -0.127935,0.362484 -0.170581,0.660999 -0.08529,0.4691 -0.319839,1.23671 -0.469097,1.44994 l -0.08529,0.12793 0.02132,-0.17058 c 0,-0.0853 0.06397,-0.36248 0.127936,-0.57571 0.06397,-0.23455 0.170581,-0.61835 0.213226,-0.83158 0.04264,-0.213225 0.127936,-0.511741 0.170581,-0.639677 0.213226,-0.57571 0.213226,-0.661 0.234548,-1.215388 0,-0.277194 0,-0.682323 0.02132,-0.895549 0.02132,-0.191903 0.02132,-0.405129 0,-0.469097 0,-0.06397 -0.106613,-0.255871 -0.191903,-0.383807 -0.106613,-0.170581 -0.191904,-0.319839 -0.191904,-0.383807 0,-0.106613 -0.08529,-0.341161 -0.234548,-0.597033 -0.127936,-0.255871 -0.661001,-0.639678 -0.916872,-0.639678 -0.106613,0 -0.213226,-0.06397 -0.277194,-0.191903 -0.149258,-0.277194 -0.447775,-0.405129 -0.938194,-0.341162 -0.362485,0.02132 -0.49042,0.149259 -0.298517,0.319839 0.06397,0.08529 0.106613,0.08529 0.319839,0.08529 l 0.234549,-0.02132 0.04264,0.106613 c 0.04265,0.06397 0.06397,0.127936 0.04265,0.149258 0,0.02132 -0.191903,-0.02132 -0.447774,-0.08529 -0.127936,-0.04264 -0.298517,-0.06397 -0.469097,-0.06397 -0.191904,0 -0.383807,0.02132 -0.49042,0.08529 -0.08529,0.04265 -0.234549,0.106613 -0.341162,0.127935 -0.234548,0.04264 -0.533065,0.213226 -0.874226,0.469097 -0.319839,0.234549 -0.383807,0.277194 -0.49042,0.277194 -0.127936,0 -0.255871,0.149258 -0.469097,0.533065 -0.106613,0.234549 -0.234549,0.40513 -0.341162,0.511743 -0.255871,0.213226 -0.426452,0.405129 -0.57571,0.703645 -0.149258,0.319839 -0.213226,0.426452 -0.40513,0.724969 -0.127935,0.191903 -0.298516,0.49042 -0.554387,1.002162 -0.106613,0.170581 -0.191904,0.405129 -0.234549,0.554387 -0.04265,0.149259 -0.127935,0.362483 -0.170581,0.469093 -0.06397,0.10662 -0.127935,0.25588 -0.127935,0.34117 l -0.02132,0.14925 0.06397,-0.0853 c 0.02132,-0.0426 0.149258,-0.25587 0.255871,-0.49042 0.106613,-0.234544 0.255871,-0.469093 0.298517,-0.554383 0.04265,-0.06397 0.191903,-0.341162 0.341161,-0.618356 0.127936,-0.277193 0.277194,-0.533065 0.319839,-0.57571 0.08529,-0.08529 0.08529,-0.06397 0,0.08529 -0.06397,0.08529 -0.213226,0.362484 -0.319839,0.618355 -0.127935,0.255871 -0.255871,0.533065 -0.277194,0.597033 -0.08529,0.127935 -0.234548,0.57571 -0.298516,0.81026 -0.02132,0.0853 -0.08529,0.23455 -0.149258,0.31984 -0.170581,0.27719 -0.298517,0.57571 -0.40513,0.95951 -0.06397,0.19191 -0.17058,0.44778 -0.234548,0.57571 -0.04265,0.10662 -0.149258,0.36249 -0.213226,0.53307 -0.08529,0.27719 -0.106613,0.38381 -0.106613,0.661 0,0.1919 -0.02132,0.51174 -0.06397,0.68232 -0.04264,0.2772 -0.04264,0.42646 -0.02132,0.98084 0.02132,0.34116 0.06397,0.74629 0.08529,0.91687 0.04265,0.14926 0.06397,0.34117 0.08529,0.40513 0,0.064 0.02132,0.12794 0.04264,0.12794 0.02132,0 0.127936,-0.70365 0.127936,-1.06613 0,-0.1919 0.02132,-0.42645 0.02132,-0.53307 0.127935,-0.89554 0.191903,-1.10877 0.255871,-1.36464 0.170581,-0.59703 0.191903,-0.68232 0.234548,-0.68232 0.08529,0 0.08529,0.10661 0,0.36248 -0.127935,0.38381 -0.213226,0.72497 -0.277193,1.25803 -0.08529,0.49042 -0.08529,0.55439 -0.04265,1.42862 0.02132,0.49042 0.06397,1.02348 0.08529,1.17274 0.02132,0.17058 0.04264,0.38381 0.04264,0.49042 0,0.14926 0.02132,0.21323 0.08529,0.29852 0.04265,0.064 0.170581,0.25587 0.255872,0.44777 0.08529,0.17058 0.191903,0.34116 0.255871,0.38381 0.149258,0.12793 0.447774,0.29851 0.661,0.40513 0.106613,0.064 0.234549,0.14926 0.255872,0.17058 0.02132,0.0213 0.106613,0.10661 0.191903,0.14926 0.149258,0.10661 0.255871,0.10661 0.469097,0.0213 0.191904,-0.10661 0.383807,-0.17058 0.618356,-0.23455 0.277193,-0.064 0.895549,-0.34116 1.023484,-0.44777 0.40513,-0.2772 0.788937,-0.59704 1.172743,-0.91688 0.234549,-0.23455 0.277194,-0.25587 0.511743,-0.29851 0.106613,0 0.213226,-0.0213 0.255871,-0.064 0.08529,-0.0426 0.149258,-0.25587 0.106613,-0.38381 -0.02132,-0.10661 -0.02132,-0.12793 0.08529,-0.25587 0.554388,-0.68232 0.724969,-1.00216 0.959517,-1.74845 0.106613,-0.2772 0.234549,-0.59703 0.319839,-0.74629 0.234549,-0.42645 0.341162,-0.63968 0.426452,-0.98084 0.06397,-0.19191 0.170581,-0.42645 0.277194,-0.61836 0.106613,-0.1919 0.213226,-0.44777 0.319839,-0.72497 0.149258,-0.53306 0.170581,-0.57571 0.213226,-1.19406 0.02132,-0.49042 0.106613,-0.78894 0.298516,-1.364648 0.12794,-0.341162 0.17058,-0.682323 0.14926,-1.108775 -0.0213,-0.469097 -0.0853,-0.639678 -0.0853,-0.255871 z m 0.25587,-1.492582 c -0.0853,-0.04265 -0.1919,0.06397 -0.21323,0.191903 0,0.08529 -0.0213,0.213226 -0.0426,0.298516 -0.02132,0.08529 -0.04265,0.191904 -0.02132,0.234549 0,0.02132 0.04264,0.04265 0.106614,0.04265 0.064,-0.02132 0.0853,-0.04265 0.10661,-0.106613 0.0426,-0.149258 0.0853,-0.255871 0.12794,-0.362484 0.064,-0.127936 0.0213,-0.277194 -0.064,-0.298516 z m 3.41159,-0.40513 c -0.1919,0.341162 -0.63967,1.55655 -0.83158,2.174905 -0.0426,0.106613 -0.0853,0.234549 -0.10661,0.277194 -0.0426,0.04265 -0.064,0.04265 -0.064,-0.02132 0,-0.04265 0.0213,-0.127936 0.064,-0.191904 l 0.61835,-1.855066 c 0.25588,-0.767614 0.36249,-1.044807 0.42646,-1.044807 0.0213,0 0.0213,0 0.0426,0.02132 0.064,0.04264 -0.0213,0.362484 -0.14926,0.639678 z m -2.87855,6.439426 c 0.17058,-0.36248 0.19191,-0.55439 0.064,-0.59703 -0.10661,-0.0426 -0.14926,0.0213 -0.29852,0.29851 -0.14925,0.29852 -0.14925,0.31984 -0.064,0.40513 0.10661,0.12794 0.1919,0.0853 0.29851,-0.10661 z m 10.32014,-7.29233 c -0.14926,-0.191903 -0.1919,-0.255871 -0.21323,-0.554387 -0.0213,-0.234549 -0.0426,-0.298517 -0.0853,-0.362485 -0.12793,-0.106613 -0.29851,-0.106613 -0.51174,0.02132 -0.25587,0.127936 -0.34116,0.255871 -0.4691,0.554388 -0.12793,0.319839 -0.12793,0.319839 -0.34116,0.490419 -0.72497,0.533065 -1.64184,3.155745 -1.72713,4.136585 0,0.255867 -0.0426,0.383807 -0.23455,0.639677 -0.064,0.0853 -0.17058,0.27719 -0.23454,0.40513 -0.10662,0.21323 -0.68233,1.83374 -0.83159,2.30284 l -0.064,0.21323 v -0.34116 c 0,-0.19191 0,-0.53307 0.0213,-0.7463 0.0426,-0.40513 0.0213,-0.57571 -0.0853,-0.93819 -0.064,-0.14926 -0.064,-0.27719 -0.064,-0.87423 0,-0.44777 0,-0.810256 0.0426,-1.044804 0.064,-0.405129 0.0426,-0.554388 -0.10662,-0.874227 -0.12793,-0.277193 -0.1919,-0.810258 -0.27719,-1.876388 -0.0426,-0.426452 -0.064,-0.618356 -0.10661,-0.703646 -0.10662,-0.191904 -0.51175,-0.554388 -0.78894,-0.724969 -0.38381,-0.213226 -0.49042,-0.277193 -0.55439,-0.383806 -0.10661,-0.170581 -0.27719,-0.277194 -0.42645,-0.277194 -0.10661,0 -0.14926,0.02132 -0.29852,0.149258 -0.10661,0.127936 -0.17058,0.213226 -0.21322,0.341162 -0.0213,0.08529 -0.21323,0.554387 -0.40513,1.023484 -0.40513,0.938195 -0.83158,2.174906 -0.89555,2.558712 -0.0426,0.341162 -0.0853,0.447775 -0.1919,0.447775 -0.19191,0 -0.34117,0.362484 -0.25588,0.639678 0.0426,0.170581 0.064,0.08529 -0.42645,1.279355 -0.34116,0.89555 -0.3838,1.10878 -0.31984,1.70581 l 0.0213,0.25587 -0.14926,0.14926 c -0.19191,0.1919 -0.29852,0.40513 -0.55439,1.1301 -0.25587,0.63967 -0.383807,1.0448 -0.405129,1.0448 0.08529,-0.40513 0.127939,-0.59703 0.255869,-0.93819 0.12794,-0.40513 0.12794,-0.49042 0.0427,-0.49042 h -0.0427 c 0,0.0426 -0.469095,1.322 -0.575708,1.59919 -0.213226,0.53307 -0.511743,1.36465 -0.597033,1.64184 -0.06397,0.31984 -0.06397,0.49042 0.02132,0.7463 0.04264,0.12793 0.06397,0.23454 0.04264,0.31983 0,0.0853 0,0.17059 0.04265,0.21323 0.02132,0.0427 0.06397,0.17058 0.08529,0.29852 0.02132,0.17058 0.08529,0.29851 0.170581,0.42645 0.149258,0.21322 0.213226,0.38381 0.213226,0.53306 0,0.064 0.02132,0.14926 0.04265,0.17058 0.106613,0.12794 0.191904,0.064 0.383806,-0.25587 0.064,-0.0853 0.14926,-0.17058 0.21323,-0.21322 0.0426,-0.0213 0.14926,-0.064 0.21322,-0.10662 0.10662,-0.064 0.14926,-0.0853 0.34116,-0.064 0.17059,0.0213 0.21323,0 0.38381,-0.0853 0.14926,-0.064 0.19191,-0.10662 0.21323,-0.21323 0.0853,-0.38381 0.23455,-0.76761 0.3838,-1.1301 0.0853,-0.23455 0.25588,-0.74629 0.36249,-1.10877 0.12793,-0.36249 0.25587,-0.76762 0.31984,-0.89555 0.0853,-0.12794 0.14926,-0.2772 0.17058,-0.36249 0.0213,-0.12793 0.0213,-0.17058 -0.12794,-0.44777 0,-0.0213 0.0426,-0.0213 0.12794,-0.0213 0.21322,0 0.31984,-0.17058 0.36248,-0.53307 0.0213,-0.1919 0.064,-0.31984 0.21323,-0.61835 0.10661,-0.23455 0.21322,-0.51175 0.25587,-0.72497 0.0853,-0.31984 0.44777,-1.25804 0.49042,-1.25804 0,0 0.0213,0.12794 0.0213,0.25588 0,0.14925 0.0213,0.29851 0.0426,0.3838 0.064,0.14926 0.064,0.36249 0.0213,0.51174 -0.0426,0.17059 -0.0426,0.59704 0,0.72497 0.0853,0.2772 0.10661,0.44778 0.064,0.81026 -0.0426,0.29852 -0.0213,0.42645 0.0213,0.78894 0.0213,0.25587 0.0426,0.661 0.0426,1.04481 0,0.59703 0,2.53738 0.83158,2.68664 0.14926,0.0213 0.21322,0.064 0.25587,0.12794 0.17058,0.23455 0.25587,0.34116 0.44777,0.4691 0.21323,0.14925 0.29852,0.14925 0.55439,0.0213 0.0853,-0.0213 0.1919,-0.0426 0.23455,-0.0426 0.14926,0 0.38381,-0.17058 0.51174,-0.34116 0.0426,-0.0853 0.17058,-0.38381 0.2772,-0.661 0.10661,-0.27719 0.25587,-0.72497 0.36248,-1.02348 0.21323,-0.55439 0.42645,-1.1301 0.661,-1.68449 0.0426,-0.14926 0.12794,-0.70364 0.10661,-0.72497 0,-0.0213 -0.0426,0.064 -0.064,0.12794 -0.0426,0.10661 -0.12794,0.27719 -0.19191,0.40513 -0.064,0.12793 -0.17058,0.36248 -0.23455,0.51174 -0.17058,0.44777 -0.31984,0.74629 -0.3838,0.74629 -0.0213,0 -0.0426,-0.0213 -0.0426,-0.0426 0,-0.064 0.44778,-1.19407 0.61836,-1.57788 0.0853,-0.21322 0.1919,-0.44777 0.21322,-0.53306 0.0213,-0.0853 0.14926,-0.38381 0.2772,-0.661 0.12793,-0.2772 0.27719,-0.61836 0.34116,-0.78894 0.0426,-0.17058 0.14926,-0.42645 0.23455,-0.57571 0.12793,-0.27719 0.31984,-0.8529 0.46909,-1.34332 0.0213,-0.12794 0.10662,-0.29852 0.19191,-0.42645 0.29851,-0.44778 0.42645,-0.81026 0.51174,-1.364651 0.064,-0.639678 0.14926,-0.852904 0.40513,-1.023484 0.10661,-0.06397 0.17058,-0.170581 0.23455,-0.277194 l 0.0853,-0.191904 -0.064,-0.191903 c -0.064,-0.191903 -0.064,-0.191903 -0.0213,-0.341162 0.0426,-0.08529 0.14926,-0.383806 0.23455,-0.661 0.14925,-0.469097 0.17058,-0.533065 0.14925,-0.746291 -0.0213,-0.277194 -0.10661,-0.469097 -0.27719,-0.661001 z m -2.08961,8.33714 c -0.064,-0.0213 -0.14926,0.0426 -0.17059,0.12793 -0.0213,0.064 -0.064,0.14926 -0.10661,0.21323 -0.12793,0.17058 -0.14926,0.29851 -0.0853,0.40513 0.0853,0.10661 0.14926,0.064 0.29852,-0.23455 0.10661,-0.23455 0.12793,-0.29852 0.10661,-0.38381 0,-0.064 -0.0213,-0.10661 -0.0426,-0.12793 z m 2.49474,-9.701786 c -0.0853,0.04264 -0.10661,0.06397 -0.12794,0.277194 -0.0213,0.06397 -0.0426,0.191903 -0.0853,0.298516 -0.0213,0.127936 -0.0426,0.234549 -0.0213,0.277194 0,0.02132 0.0213,0.04265 0.064,0.04265 0.0853,0 0.14926,-0.08529 0.25587,-0.298516 0.0427,-0.106613 0.12794,-0.255872 0.14926,-0.319839 0.12793,-0.191904 -0.0213,-0.362485 -0.23455,-0.277194 z m 1.42861,3.560874 c -0.31983,0.319839 -0.40512,0.405129 -0.46909,0.554388 -0.0427,0.106613 -0.0853,0.255871 -0.10662,0.362484 -0.0426,0.106613 -0.064,0.127935 -0.064,0.08529 0,-0.106613 0.12793,-0.703646 0.17058,-0.831581 0.0426,-0.106613 0.87422,-0.810259 0.95951,-0.810259 0.10662,0 -0.064,0.234549 -0.49042,0.639678 z m 6.90853,-0.383807 c -0.10662,0.191904 -0.31984,0.49042 -0.49042,0.682323 -0.17058,0.170581 -0.38381,0.469098 -0.51175,0.661001 -0.23454,0.319839 -0.27719,0.362484 -0.36248,0.362484 -0.0213,0.02132 -0.0213,0 0.0213,-0.08529 0.0426,-0.04264 0.12794,-0.213226 0.21323,-0.362484 0.0853,-0.149259 0.1919,-0.362485 0.27719,-0.469098 0.25587,-0.362484 0.59704,-0.916871 0.70365,-1.15142 0.12793,-0.277194 0.12793,-0.383807 0.0426,-0.938194 -0.064,-0.362485 -0.064,-0.40513 -0.23454,-0.639678 -0.2772,-0.447775 -0.49042,-0.575711 -1.15142,-0.618356 -0.23455,-0.02132 -0.49042,-0.04264 -0.61836,-0.06397 -0.10661,-0.04264 -0.27719,-0.06397 -0.49042,-0.06397 -0.21323,0 -0.4691,0.02132 -0.76761,0.06397 -0.51175,0.04265 -0.78894,0.106613 -1.06613,0.234549 -0.21323,0.106613 -0.49042,0.298516 -0.4691,0.341162 0,0 0.0853,-0.02132 0.1919,-0.08529 0.23455,-0.106613 0.61836,-0.191903 0.87423,-0.234548 0.10661,0 0.27719,-0.04265 0.40513,-0.06397 0.14926,-0.02132 0.21322,-0.02132 0.23455,0 0.064,0.06397 -0.17058,0.149258 -0.49042,0.191903 -0.29852,0.04265 -0.34116,0.06397 -0.83158,0.383807 -0.10662,0.06397 -0.21323,0.127936 -0.25588,0.149258 -0.064,0 -0.21322,0.06397 -0.36248,0.149258 -0.23455,0.106613 -0.29852,0.127936 -0.68232,0.170581 -0.23455,0.02132 -0.4691,0.06397 -0.53307,0.106613 -0.12793,0.06397 -0.40513,0.40513 -0.55439,0.661001 -0.0853,0.127935 -0.25587,0.362484 -0.46909,0.554387 -0.51174,0.533065 -0.70365,0.89555 -0.70365,1.364647 0,0.213226 0.10661,0.639678 0.34116,1.279356 0.0427,0.06397 0.064,0.213224 0.0853,0.298514 0.0213,0.14926 0.0427,0.19191 0.25588,0.44778 0.21322,0.21322 0.27719,0.31984 0.36248,0.51174 0.1919,0.4691 0.29852,0.68232 0.44777,0.83158 0.17058,0.17058 0.34117,0.40513 0.61836,0.91687 0.10661,0.21323 0.29852,0.51174 0.42645,0.68233 0.21323,0.29851 0.34116,0.61835 0.44778,1.10877 0.0853,0.40513 0.064,0.51174 -0.064,0.68232 -0.064,0.0853 -0.12794,0.19191 -0.12794,0.2772 -0.0426,0.1919 -0.12793,0.27719 -0.31984,0.31984 -0.21322,0.0426 -0.25587,0.0853 -0.44777,0.34116 -0.064,0.10661 -0.1919,0.23455 -0.23455,0.25587 -0.10661,0.0426 -0.10661,0.0426 -0.21323,0 l -0.10661,-0.064 0.0427,-0.61835 c 0.0426,-0.9382 0.0213,-1.47126 -0.064,-1.83375 -0.064,-0.34116 -0.14926,-0.46909 -0.36249,-0.661 -0.21322,-0.1919 -0.23454,-0.25587 -0.31983,-0.61835 -0.0427,-0.19191 -0.10662,-0.40513 -0.12794,-0.49042 -0.14926,-0.31984 -0.34116,-0.51175 -0.53307,-0.51175 -0.064,0 -0.12793,0.0213 -0.17058,0.064 -0.10661,0.10662 -0.23454,0.42645 -0.23454,0.661 0,0.12794 -0.0213,0.29852 -0.0426,0.40513 -0.0213,0.17058 -0.0213,0.36249 0,0.89555 0.0213,0.70365 0.0213,0.68232 -0.12794,1.30068 -0.0426,0.1919 -0.10661,0.49042 -0.10661,0.76761 -0.064,0.70365 -0.10661,0.81026 -0.0853,0.17058 0.0426,-1.322 0.0853,-1.983 0.10661,-2.11093 0.0213,-0.0853 0.0427,-0.36249 0.0427,-0.59704 0.0213,-0.63967 -0.064,-0.93819 -0.23455,-0.81025 0,0 -0.0426,0.064 -0.064,0.10661 -0.064,0.10661 -0.10661,0.78893 -0.0853,1.17274 0.0213,0.40513 -0.0426,0.76761 -0.17058,1.19407 -0.10661,0.31984 -0.14926,0.93819 -0.14926,1.64184 v 0.55438 l 0.12794,0.29852 c 0.0853,0.17058 0.17058,0.44778 0.21323,0.61836 0.27719,1.15142 0.63967,1.57787 1.83374,1.57787 0.4691,-0.0426 0.91687,-0.29852 1.40729,-0.81026 0.17058,-0.17058 0.31984,-0.31984 0.36248,-0.34116 0.0213,-0.0213 0.17059,-0.064 0.2772,-0.0853 0.4691,-0.064 0.72497,-0.23455 1.08745,-0.661 0.27719,-0.34116 0.55439,-0.55439 0.76761,-0.63968 0.25588,-0.0853 0.42646,-0.23455 0.51175,-0.4691 0.14926,-0.27719 0.23455,-0.55439 0.1919,-0.55439 -0.0213,0 -0.10661,0.10662 -0.1919,0.25588 -0.0853,0.14925 -0.19191,0.29851 -0.23455,0.34116 -0.0853,0.064 -0.29852,0.1919 -0.661,0.36248 -0.10662,0.0427 -0.29852,0.19191 -0.49042,0.40513 -0.19191,0.17058 -0.38381,0.36249 -0.4691,0.38381 -0.0853,0.0426 -0.10661,0.064 -0.10661,0.064 0,0 0,-0.0213 0.0213,-0.0427 0.10661,-0.21323 1.19407,-1.25803 1.42861,-1.38597 0.31984,-0.14926 0.38381,-0.27719 0.57571,-0.87423 0.064,-0.27719 0.14926,-1.10877 0.10662,-1.322 -0.0213,-0.1919 -0.14926,-0.46909 -0.2772,-0.661 -0.064,-0.0853 -0.14925,-0.23455 -0.17058,-0.34116 -0.064,-0.23455 -0.12793,-0.36248 -0.27719,-0.51174 -0.064,-0.0853 -0.17058,-0.27719 -0.23455,-0.44778 -0.14926,-0.34116 -0.40513,-0.74629 -0.72497,-1.10877 -0.14926,-0.17058 -0.21322,-0.27719 -0.23455,-0.38381 -0.0213,-0.14926 -0.0426,-0.17058 -0.23454,-0.27719 -0.0853,-0.0426 -0.10662,-0.064 -0.0853,-0.1919 0,0.0213 0,0.0213 0,0.0426 v -0.0426 c 0,-0.17059 -0.0426,-0.405134 -0.17058,-0.511747 -0.1919,-0.149258 -0.29851,-0.362484 -0.31984,-0.703646 -0.0213,-0.277193 -0.0213,-0.298516 0.064,-0.469097 0.17058,-0.341161 0.78894,-0.57571 1.10878,-0.661 0.4691,-0.106613 0.4691,-0.106613 0.68232,-0.383807 0.12794,-0.127936 0.23455,-0.277194 0.25587,-0.341162 0.0213,-0.04264 0.10662,-0.106613 0.23455,-0.170581 0.25587,-0.127935 0.27719,-0.127935 0.27719,-0.02132 0,0.127935 -0.0853,0.341161 -0.34116,0.788936 -0.40513,0.746291 -0.51174,1.002162 -0.51174,1.236711 0,0.127935 0.0213,0.234548 0.064,0.319839 0.0853,0.17058 0.0853,0.17058 -0.0213,0.533066 -0.0853,0.34116 -0.10662,0.53306 -0.0213,0.72497 0.10662,0.1919 0.25587,0.25587 0.44778,0.1919 0.0853,-0.0426 0.25587,-0.14926 0.3838,-0.27719 l 0.23455,-0.19191 h 0.25587 c 0.31984,0 0.38381,-0.064 0.49042,-0.34116 0.064,-0.149257 0.10662,-0.213224 0.23455,-0.277192 0.12794,-0.08529 0.21323,-0.191904 0.38381,-0.469097 0.12794,-0.191904 0.38381,-0.57571 0.59703,-0.852904 0.42645,-0.57571 0.59704,-0.916872 0.63968,-1.279356 0,-0.106613 0.0213,-0.213226 0.0213,-0.213226 -0.0213,-0.02132 -0.10661,0.127935 -0.21322,0.298516 z m -2.58004,3.838069 c -0.0213,0.0426 -0.0426,0.17058 -0.0853,0.23455 -0.0426,0.10661 -0.0426,0.17058 -0.0213,0.21322 0.064,0.10662 0.1919,0.0853 0.29852,-0.0426 0.0853,-0.10661 0.10661,-0.14926 0.10661,-0.2772 0,-0.27719 -0.21323,-0.3838 -0.29852,-0.12793 z m -3.09177,-5.458586 c 0.0853,0.02132 0.25587,0.02132 0.27719,-0.02132 0.0426,-0.06397 -0.0213,-0.191903 -0.0853,-0.213226 -0.0426,-0.02132 -0.10661,-0.02132 -0.14926,0 -0.064,0.02132 -0.0853,0.04264 -0.0853,0.106613 0,0.06397 0.0213,0.106613 0.0427,0.127936 z m 6.24752,0.17058 c -0.0213,-0.127935 -0.10662,-0.255871 -0.17058,-0.255871 -0.0213,0 -0.064,0.02132 -0.10662,0.04264 -0.064,0.06397 -0.12793,0.40513 -0.0853,0.533065 0.0426,0.106613 0.19191,0.08529 0.29852,-0.06397 0.064,-0.106613 0.064,-0.149259 0.064,-0.255872 z m -5.35198,4.520396 c 0,-0.0213 0,-0.0426 0,-0.0853 0,0.0426 0,0.064 0,0.0853 z"
       id="text6-4"
       style="font-size:21.3226px;font-family:'Beast Energy';-inkscape-font-specification:'Beast Energy, Normal';font-variant-caps:all-small-caps;fill:#ffffff;stroke-width:0.324835"
       inkscape:label="solutions"
       transform="scale(1.0835331,0.92290672)"
       aria-label="SOLUTIONS" />
  </g>
</svg>
