<?xml version="1.0" encoding="UTF-8" standalone="no"?>
<!-- Created with Inkscape (http://www.inkscape.org/) -->

<svg
   version="1.1"
   id="svg1"
   width="241.05457"
   height="248.03827"
   viewBox="0 0 241.05457 248.03827"
   sodipodi:docname="z.svg"
   inkscape:version="1.3.2 (091e20e, 2023-11-25, custom)"
   xmlns:inkscape="http://www.inkscape.org/namespaces/inkscape"
   xmlns:sodipodi="http://sodipodi.sourceforge.net/DTD/sodipodi-0.dtd"
   xmlns="http://www.w3.org/2000/svg"
   xmlns:svg="http://www.w3.org/2000/svg">
  <sodipodi:namedview
     id="namedview1"
     pagecolor="#ffffff"
     bordercolor="#cccccc"
     borderopacity="1"
     inkscape:showpageshadow="0"
     inkscape:pageopacity="1"
     inkscape:pagecheckerboard="0"
     inkscape:deskcolor="#d1d1d1"
     inkscape:zoom="2.6757427"
     inkscape:cx="120.52728"
     inkscape:cy="124.0777"
     inkscape:window-width="1500"
     inkscape:window-height="930"
     inkscape:window-x="-6"
     inkscape:window-y="-6"
     inkscape:window-maximized="1"
     inkscape:current-layer="svg1" />
  <defs
     id="defs1">
    <clipPath
       clipPathUnits="userSpaceOnUse"
       id="clipPath11652">
      <path
         id="path11653"
         style="fill:#ff0000;fill-opacity:1;fill-rule:nonzero;stroke:none"
         d="M -4.1041043,26.646644 158.35435,204.53164 72.786568,282.67882 c 0.667404,-0.61223 1.336261,-1.22308 2.000688,-1.83801 1.200966,-1.11158 2.400041,-2.22455 3.576811,-3.36183 1.335766,-1.30024 2.660535,-2.616 3.859411,-4.04579 1.051634,-1.29662 2.035387,-2.65025 2.757377,-4.16349 0.334444,-0.56328 0.633763,-1.14539 0.906899,-1.73815 0.833526,0.0941 1.874524,-0.37804 2.754931,-1.66961 0.628543,-0.92203 1.193322,-1.88632 1.775174,-2.83796 0.631503,-1.13334 1.248305,-2.2731 1.790591,-3.45247 0.338273,-0.6826 0.620048,-1.38254 0.88822,-2.08877 0.391516,0.02 0.805767,-0.0129 1.179913,0.0466 0.248845,-0.13179 0.509705,-0.24085 0.746402,-0.39336 0.677004,-0.43627 1.150073,-1.15218 1.723679,-1.7011 0.891002,-1.02077 1.734272,-2.08544 2.378776,-3.28341 0.94785,-1.85647 1.61897,-3.8338 1.94568,-5.89798 0.27546,-1.69353 0.465,-3.39308 0.57835,-5.10419 0.37305,-0.77671 0.772,-1.5408 1.12034,-2.32987 0.60951,-1.34192 1.07785,-2.73964 1.60633,-4.11473 0.55283,-1.45493 1.17449,-2.88409 1.61557,-4.37976 0.32446,-1.0241 0.63897,-2.05158 0.97019,-3.07353 0.24123,-0.95253 0.4464,-1.91397 0.79216,-2.8369 0.33121,-1.06997 0.74025,-2.11707 0.99985,-3.20905 0.19551,-0.9342 0.3346,-1.87862 0.53117,-2.81278 0.20315,-1.10073 0.39782,-2.20332 0.53594,-3.31443 0.12377,-1.12986 0.26902,-2.25803 0.39822,-3.38701 0.15287,-0.9608 0.31166,-1.92193 0.41302,-2.89003 0.18977,-1.09807 0.39508,-2.19381 0.52152,-3.30124 0.0821,-1.15687 0.13778,-2.31664 0.04,-3.47513 -0.058,-1.5254 -0.0934,-3.0506 -0.18389,-4.57468 -0.0812,-1.32173 -0.12216,-2.64756 -0.2738,-3.96356 -0.32884,-2.85298 -2.42027,-3.615 -3.54086,-2.46371 -0.50938,0.5233 -0.81908,1.44186 -0.67022,2.73874 0.15045,1.31066 0.19373,2.63078 0.27455,3.947 0.087,1.49088 0.12157,2.98265 0.17736,4.47485 0.0933,1.00625 0.0387,2.0117 -0.033,3.01647 -0.1286,0.96519 -0.30355,1.92368 -0.46941,2.88332 -0.11052,0.9845 -0.26268,1.96183 -0.42079,2.93945 -0.14446,1.19457 -0.29195,2.39032 -0.42798,3.58612 -0.12788,1.01159 -0.30571,2.01675 -0.49076,3.01923 -0.19119,0.89578 -0.31283,1.80441 -0.50806,2.69908 -0.25313,0.95885 -0.60497,1.8852 -0.90111,2.83058 -0.37045,0.99244 -0.59001,2.02837 -0.85304,3.05119 -0.32003,0.9409 -0.60398,1.89428 -0.90438,2.84149 -0.4196,1.4185 -1.00847,2.77296 -1.53475,4.15255 -0.51125,1.27943 -0.913452,2.60528 -1.497743,3.85423 -0.140205,0.30604 -0.287982,0.60774 -0.436605,0.90923 -0.0046,0.004 -0.0096,0.006 -0.01433,0.0104 -0.447461,0.3855 -0.804919,1.0425 -0.947438,1.99208 -0.03347,0.0743 -0.07281,0.14572 -0.105383,0.22057 -0.332488,0.69882 -0.648465,1.41082 -1.018281,2.09117 -0.763303,1.07819 -1.781877,1.96867 -2.699403,2.91497 -2.013856,2.07552 -3.877632,4.30071 -5.618,6.6094 -1.612595,2.14874 -2.874043,4.52143 -3.907325,6.99386 -0.695579,1.77056 -1.173801,3.61116 -1.591411,5.46333 -0.241095,1.01179 -0.690052,1.94814 -1.232847,2.82937 -0.633662,1.33731 -1.480735,2.53606 -2.413224,3.67724 -1.098787,1.30063 -2.311288,2.49851 -3.530598,3.68467 -1.151573,1.11265 -2.323778,2.20311 -3.498925,3.2907 -0.991857,0.91667 -1.988529,1.82962 -2.98465,2.74166 -1.043383,0.95561 -2.087782,1.90943 -3.132514,2.86356 -0.839851,0.76725 -1.679554,1.53388 -2.5195,2.30102 -0.875633,0.79974 -1.752007,1.60006 -2.627667,2.39978 -0.921958,0.81641 -1.793098,1.69285 -2.751003,2.46747 -1.998118,0.90101 -3.940209,1.90849 -5.846609,2.99074 -1.961522,1.06622 -3.817423,2.30473 -5.689326,3.51631 -1.373713,0.87235 -2.671279,1.85609 -4.023688,2.75955 -0.800537,0.51844 -1.648969,0.92734 -2.556009,1.21548 -1.275992,0.27915 -2.434621,0.88473 -3.590463,1.46722 -1.212405,0.6331 -2.394102,1.3205 -3.582675,1.99704 -1.175741,0.73916 -2.374218,1.43386 -3.619615,2.04931 -0.96804,0.48162 -1.987303,0.84418 -2.965189,1.30614 -0.72188,0.30367 -1.446232,0.60487 -2.177458,0.88563 -0.741899,0.27607 -1.505855,0.49749 -2.2806,0.65976 -0.851581,0.16931 -1.717989,0.20475 -2.574556,0.34367 -0.853281,0.14295 -1.705636,0.29607 -2.558299,0.44257 -0.776721,0.13014 -1.56381,0.18495 -2.350891,0.19759 -0.878456,0.0954 -1.756441,-8.7e-4 -2.635561,-0.0185 -1.161845,-0.0412 -2.3157195,-0.17736 -3.4751028,-0.25429 -1.4161325,-0.0823 -2.8377815,-0.0584 -4.2492238,0.0797 -1.2963292,0.18999 -2.6044335,0.31619 -3.91067315,0.41859 -1.15465785,0.0818 -2.31191935,0.11579 -3.46796935,0.16771 -1.2814121,0.05 -2.4707814,0.46019 -3.6001082,1.03957 -0.6417333,0.40114 -1.3352295,0.72121 -2.0511499,0.96601 -0.5594251,0.13907 -1.1255838,0.25226 -1.7020698,0.27955 -0.543334,-0.14034 -1.102017,0.003 -1.644287,-0.0192 -0.45501,0.025 -0.875366,0.18216 -1.295696,0.34219 -2.571439,0.97904 0.426333,3.02102 1.800243,3.86822 -0.0448,0.003 -0.150243,-0.006 -0.187887,-0.003 -0.05401,0.0297 -0.0358,0.0154 0.0013,0.0333 1.284964,0.61763 0.898502,0.40882 0.186626,-0.0303 0.332514,-0.0202 0.789636,-0.0312 1.395319,0.0218 0.9707189,-0.066 1.9350137,-0.23168 2.8659582,-0.51986 0.1440426,-0.0526 0.284548,-0.11617 0.4280438,-0.17138 0.5097116,0.63181 1.5327777,1.00879 2.9806945,0.76137 0.5497404,0.34071 1.3368672,0.53507 2.3557983,0.45655 0.9834228,-0.0758 1.96496852,-0.16139 2.93759737,-0.33136 1.88494873,-0.33069 3.75889573,-0.72756 5.64862763,-1.03244 1.7678931,-0.29193 3.5337702,-0.65043 5.3289052,-0.7193 1.353853,-0.0519 2.250758,-0.52967 2.707653,-1.14501 0.886829,-0.0317 1.77432,-0.0769 2.649571,-0.22966 0.848196,-0.14586 1.694021,-0.29751 2.542946,-0.43913 0.91515,-0.16446 1.855924,-0.1576 2.762871,-0.38076 0.990556,-0.2171 1.971264,-0.48769 2.919598,-0.84923 0.825691,-0.32303 1.648134,-0.65531 2.460967,-1.00965 0.996705,-0.47815 2.049707,-0.82767 3.031591,-1.3377 1.313745,-0.65541 2.590479,-1.37411 3.830626,-2.16 1.12655,-0.6418 2.248019,-1.29456 3.395679,-1.89769 0.964083,-0.48646 1.916421,-1.00489 2.987589,-1.22081 0.334286,-0.10974 0.650877,-0.25791 0.975668,-0.38849 0.770863,0.71386 2.248869,0.67166 3.674134,-0.84268 0.479662,-0.50971 0.953537,-1.02492 1.407482,-1.55787 0.5673,-0.65854 1.089264,-1.39925 1.864759,-1.82465 0.878101,-0.46707 1.796296,-0.80815 2.767551,-1.03308 1.230701,-0.34369 2.450052,-0.7704 3.562875,-1.40764 1.305906,-0.7478 1.855762,-1.65474 1.854562,-2.42377 0.113588,-0.0569 0.221571,-0.12394 0.335761,-0.17974 0.161468,-0.0788 1.932712,-0.89613 2.107597,-0.9911 0.323659,-0.17574 0.625774,-0.38838 0.938827,-0.58233 0.858534,-0.70797 1.665485,-1.47365 2.485644,-2.22512 l -82.879549,75.69207 -162.458442,-177.885 z" />
    </clipPath>
  </defs>
  <g
     id="g1"
     transform="matrix(1.013539,0,0,1.0326683,-21.591095,-19.711106)"
     style="display:inline">
    <path
       style="display:inline;fill:#cfcfcf;stroke:none"
       d="m 67.933978,183.54913 -1,5 v 1 l 2,2 -9,6 16,2 v 8 l 5,1 3,-2 -1,12 16.847221,-23.55016 23.152781,-1.44984 h 59 v -1 l -4,-2 h 16 c -2.78467,-6.48741 -8.54469,-6.72284 -15,-7 v 1 l 8,1 v 4 c -5.96057,0.2829 -18.55133,-4.2991 -22,1 l 6,1 v 1 h -53 c -5.36332,0 -15.92709,-2.00539 -20.49074,1.17902 -5.663628,3.95192 -10.340843,16.41122 -12.509262,22.82098 h -1 l 1,-11 h -4 v -7 l -3,7 h -1 v -7 l -16,-2 10,-5 -2,-3 4,-4 z"
       id="path1722" />
    <path
       style="display:inline;fill:#b5b5b5;stroke:none"
       d="m 34.933978,182.54913 1,1 -1,-1 m 34,0 v 1 l 4,1 -4,4 2,3 -10,5 16,2 v 7 h 1 l 2,-7 c 3.456039,-0.43237 3.386513,-3.81808 4,-7 l -5,4 c -0.605385,-2.76749 -1.288795,-2.5766 -4,-2 l 1,-9 z"
       id="path1696" />
    <path
       style="display:inline;fill:#cfcfcf;stroke:none"
       d="m 210.93398,63.549133 9,7 h -9 l 1,4 h -4 l 4,3 c -10.00345,3.638123 -30.35245,4.671951 -34,17 l 14,-6 c -27.1132,20.534877 -56.50931,42.495497 -76,70.999997 10.30191,-5.21576 18.13989,-18.56891 26.28549,-26.71451 17.71222,-17.71222 37.22994,-33.914607 57.71451,-48.285487 v -1 l -8,3 c 6.25137,-5.007309 14.22459,-6.012177 22,-7 l -1,-8 9,-1 z"
       id="path616" />
    <path
       style="display:inline;fill:#b5b5b5;stroke:none"
       d="m 110.93398,159.54913 c 9.81451,-0.73996 16.83723,-13.2881 23.08951,-20 9.90574,-10.63396 20.57075,-21.59871 31.91435,-30.71451 8.23592,-6.61844 18.87174,-12.658987 25.99614,-20.285487 l -14,6 c 6.40291,-13.025482 23.63171,-10.789032 34,-17 l -4,-3 h 4 l -1,-4 h 9 l -9,-7 c -10.82292,3.46286 -21.13803,15.832977 -29.27084,23.540131 -17.88929,16.952966 -36.83872,33.023436 -53.30786,51.421296 -5.64748,6.30885 -14.39203,13.01568 -17.4213,21.03857 z"
       id="path615" />
    <path
       style="display:inline;fill:#b5b5b5;stroke:none"
       d="m 66.634388,173.26297 c 9.81451,-0.73996 16.83723,-13.2881 23.08951,-20 9.90574,-10.63396 20.570752,-21.59871 31.914352,-30.71451 8.23592,-6.61844 18.87174,-12.65899 25.99614,-20.28549 l -14,6 c 6.40291,-13.025478 23.63171,-10.789028 34,-16.999996 l -4,-3 h 4 l -1,-4 h 9 l -9,-7 c -10.82292,3.46286 -21.13803,15.832977 -29.27084,23.540126 -17.88929,16.95297 -36.83872,33.02344 -53.307862,51.4213 -5.64748,6.30885 -14.39203,13.01568 -17.4213,21.03857 z"
       id="path615-1" />
    <path
       style="display:inline;fill:#b5b5b5;stroke:none;stroke-width:0.521615"
       d="m 95.972008,85.785049 c 3.415238,-3.71795 9.673662,-1.13377 13.830022,-0.779131 6.58511,0.561895 13.52124,0.955515 20.09042,0.262937 4.76949,-0.502836 10.13325,-2.245938 14.86251,-1.85127 l -6.44104,3.145905 c 6.20908,3.047657 11.08218,-5.021719 16.41334,-6.580307 l -0.34401,2.955985 1.29619,-1.64689 0.94554,2.157182 2.91642,-3.705492 -0.69465,6.760057 c -4.60623,2.944944 -11.87504,1.794008 -16.95667,1.779323 -11.17778,-0.03232 -22.419,0.756989 -33.59517,-0.490505 -3.83246,-0.427778 -8.794824,0.245909 -12.322902,-2.007794 z"
       id="path615-1-5" />
  </g>
  <g
     id="letter_z"
     transform="translate(-21.118124,-16.791134)">
    <path
       style="fill:#020202;stroke:none"
       d="m 199.50289,55.959538 c -5.80345,4.223373 -15.05405,3.226227 -22,2.800156 -15.50352,-0.951004 -31.65544,0.5625 -47,-1.800156 l -16,3 v 1 l 13,1 v 1 l -21,2 c -3.47926,-3.815262 -9.18467,-1.882675 -10,3 h 28 v 2 l -20,2 -1,3 -14,4 v 1 l 64,-2 v 1 l -50,4 v 1 l 55,-3 -47.55093,52.000002 -17.29012,22.00386 -10.88194,18.48225 -14.27701,6.51389 h 9 v 1 l -9,3 3,2 -11,2 1,3 h 10 v 1 l -2,1 7,1 v 9 h 1 l 3,-9 h 1 l -1,10 h 1 l 3,-4 -2,16 6,-13 3,1 4,-6 c 0.13042,-6.80719 8.14794,-4.26694 13,-3.91125 9.7043,0.71133 19.32642,0.64807 28.99924,1.31788 3.92595,0.27187 10.1318,1.66042 13.00076,-1.40663 h 1 1 c 2.54245,2.67542 9.64226,1.6987 12,-1 h 1 1 l 3,2 -16,-6 30,2 2,-3 v -1 c -7.96025,-4.14194 -21.09767,-2 -30,-2 v -2 l 19,-1 c -2e-5,-3.00098 12.52802,-6.90863 16,-7 v -1 l -64,1 v -1 l 52,-4 v -1 l -70,3 29.54475,-33.57484 25.45525,-24.42517 v -3.99999 c 5.8967,-1.40971 12.95538,-6.89508 14,-13.000002 l 9,-7 -19,13.000002 c 8.13309,-9.959307 18.67181,-17.917818 29.9892,-23.867281 4.45511,-2.342011 12.8808,-2.712753 14.0108,-8.132721 l -6,1 v -1 l 7,-3 -3,-1 11,-3 c -2.58197,-3.654465 -6.86307,-2.997269 -11,-3 l 1,-3 z"
       id="path300" />
    <path
       style="fill:#800000;stroke:#000000;stroke-width:0.396511"
       id="path11654"
       d="m 89.754627,168.41337 c 3.980542,-4.14417 2.228741,-1.97558 5.286042,-5.0826 4.517288,-4.5794 8.932111,-7.56418 13.348211,-12.03204 3.01214,-3.03739 6.36583,-6.453 9.52101,-9.64894 1.87084,-1.89498 3.66932,-3.70987 5.52099,-5.5836 3.42025,-3.46059 6.44566,-6.4858 9.57223,-9.62279 0.77459,-0.77723 1.59369,-1.6034 2.39051,-2.40507 0.77793,-0.7801 1.55583,-1.5602 2.33374,-2.34028 5.54009,-5.58302 10.82052,-10.8803 15.9375,-15.99742 3.62092,-3.61918 7.00561,-6.978872 10.43324,-10.385882 3.33054,-3.307891 4.62591,-5.09221 8.08428,-8.540239 2.44629,-2.422276 7.19681,-6.662424 9.17618,-8.575253 0.69932,-0.690869 1.3278,-1.305632 1.82362,-1.775186 l 17.93807,-20.022625 v 0 c -0.68156,0.672084 -1.46366,1.455184 -2.1471,2.129292 -2.42877,2.404084 -5.3502,5.348669 -7.96757,7.959591 -1.20754,1.203598 -2.49655,2.496585 -3.66406,3.656291 -2.17482,2.160266 -3.98204,3.917716 -6.34614,6.285176 -3.44057,3.42141 -7.31261,7.31726 -11.19454,11.224079 -1.7465,1.759832 -3.5508,3.583401 -5.2641,5.306587 -3.7097,3.731091 -6.96008,6.957031 -10.59639,10.607339 -4.61927,4.62567 -4.99539,5.29055 -10.28651,10.65742 -4.8871,4.93497 -13.87885,13.67673 -18.8104,18.6608 -4.26005,4.2966 -8.61617,8.69909 -12.55383,12.64026 -0.64822,0.64885 -1.26264,1.26054 -1.94456,1.94651 -2.18342,2.1964 -37.197001,37.96973 -39.360545,40.14434 z" />
  </g>
  <g
     id="circle"
     transform="translate(-21.118124,-16.791134)"
     style="display:none">
    <ellipse
       style="fill:none;stroke:#000000;stroke-width:1.63207"
       id="path11520"
       cx="-11.959368"
       cy="196.94806"
       rx="120.78802"
       ry="118.67819"
       transform="matrix(-0.69990656,0.71423441,0.71423441,0.69990656,-7.3921062,8.0578886)"
       clip-path="url(#clipPath11652)" />
  </g>
  <g
     id="solutions"
     transform="translate(-21.118124,-16.791134)"
     style="display:none">
    <path
       d="m 58.450116,224.00435 1.328228,-1.51756 0.198319,0.17357 q 0.627034,2.4675 2.713688,4.29381 2.405688,2.10554 3.79429,0.519 0.490539,-0.56047 0.255644,-1.2838 -0.226273,-0.71579 -1.533574,-2.54523 l -0.491452,-0.67378 q -1.313772,-1.80465 -1.453739,-3.054 -0.131343,-1.24181 0.759173,-2.25927 1.064092,-1.21578 2.867473,-1.08403 1.803381,0.13175 3.467531,1.58827 1.871091,1.63765 3.084555,3.88747 l -1.25276,1.43135 -0.198319,-0.17358 q -0.620612,-2.12686 -2.621041,-3.87771 -1.008837,-0.88297 -1.973582,-0.98119 -0.9572,-0.10684 -1.500566,0.51398 -0.452805,0.51735 -0.374207,1.21048 0.08722,0.70067 1.481839,2.49995 1.298694,1.70009 1.739455,2.58837 0.448307,0.87966 0.403989,1.80022 -0.03677,0.91193 -0.753713,1.73107 -1.222574,1.39685 -3.072295,1.17886 -1.841098,-0.21044 -3.591474,-1.74243 -2.284972,-1.99989 -3.277462,-4.22382 z m 30.955826,15.13376 q -1.488346,2.58085 -3.978342,3.27454 -2.474344,0.68949 -5.075052,-0.81031 -2.630488,-1.51697 -3.235996,-4.02225 -0.599784,-2.51521 0.854216,-5.0365 1.465449,-2.54115 3.97682,-3.24897 2.51137,-0.70782 5.062447,0.76336 2.570929,1.48262 3.216142,4.0108 0.645214,2.52818 -0.820235,5.06933 z m -3.266017,-7.57133 q -1.816526,-1.04756 -3.436168,-0.48688 -1.619642,0.56069 -2.793145,2.5956 -1.104811,1.91579 -0.789177,3.68512 0.321358,1.7594 2.088251,2.77834 1.796673,1.03612 3.416315,0.47543 1.629568,-0.55496 2.808796,-2.59979 1.133433,-1.96542 0.814754,-3.6836 -0.312954,-1.7281 -2.109626,-2.76422 z m 19.364595,20.70158 -8.411934,-2.91718 4.193684,-12.09283 2.08945,0.7246 -3.611749,10.41478 6.322489,2.19258 z m 22.10935,-0.32642 q -0.35455,2.32212 -1.95631,3.39899 -1.58871,1.06727 -4.1487,0.6764 -2.63929,-0.40297 -3.79355,-1.87745 -1.15426,-1.47448 -0.7928,-3.84191 l 1.22275,-8.00849 2.15221,0.32861 -1.17951,7.7253 q -0.52058,3.40955 2.66243,3.89554 3.20566,0.48944 3.72104,-2.88613 l 1.1847,-7.75928 2.15221,0.3286 z m 21.71262,-6.14227 -4.91282,0.1707 0.38359,11.03952 -2.18729,0.076 -0.38359,-11.03951 -4.93571,0.17149 -0.0609,-1.75212 12.03582,-0.4182 z m 16.81264,8.3776 -6.03377,1.20706 -0.32368,-1.61799 1.94384,-0.38887 -1.86341,-9.3147 -1.94384,0.38887 -0.32368,-1.61799 6.03377,-1.20706 0.32368,1.61799 -1.94384,0.38887 1.86341,9.3147 1.94384,-0.38887 z m 21.02248,-13.65481 q 1.08031,2.7765 0.062,5.15228 -1.01177,2.36096 -3.80962,3.44958 -2.82988,1.10109 -5.16237,0.004 -2.33665,-1.10729 -3.39203,-3.81972 -1.06369,-2.73377 -0.043,-5.13507 1.02066,-2.4013 3.76512,-3.46915 2.76581,-1.07616 5.14102,0.004 2.3752,1.08 3.43889,3.81377 z m -7.94835,-2.19443 q -1.95422,0.76037 -2.53123,2.37428 -0.577,1.6139 0.27478,3.80306 0.80193,2.06101 2.37909,2.92281 1.57301,0.85112 3.47385,0.11152 1.93286,-0.75206 2.50987,-2.36597 0.58768,-1.61805 -0.26826,-3.81789 -0.8227,-2.11441 -2.36189,-2.9418 -1.54334,-0.83807 -3.47621,-0.086 z m 29.89218,-3.09117 -2.05038,1.30274 -10.69901,-4.959 5.32158,8.37563 -1.67319,1.06309 -6.86398,-10.80321 2.13743,-1.35805 10.5347,4.91407 -5.25399,-8.26925 1.68286,-1.06923 z m 8.68652,-7.70547 -1.37167,-1.47842 0.1932,-0.17925 q 2.51921,-0.36781 4.55204,-2.25385 2.34364,-2.1744 0.90962,-3.72003 -0.50658,-0.546 -1.25037,-0.38737 -0.73539,0.15083 -2.69052,1.2614 l -0.72111,0.41894 q -1.93114,1.11957 -3.18827,1.12924 -1.24874,0.002 -2.16838,-0.98934 -1.09889,-1.18441 -0.78086,-2.96441 0.31802,-1.78 1.93924,-3.28416 1.82283,-1.69121 4.18635,-2.66485 l 1.29373,1.39442 -0.1932,0.17925 q -2.17975,0.39674 -4.12858,2.20485 -0.98281,0.91184 -1.18053,1.8612 -0.20552,0.94097 0.35562,1.54577 0.46761,0.50401 1.16515,0.49771 0.70594,-0.0141 2.64012,-1.21464 1.82558,-1.11542 2.75478,-1.4617 0.92141,-0.35468 1.83241,-0.21516 0.9032,0.13113 1.64359,0.92915 1.26256,1.36081 0.85395,3.17796 -0.40021,1.80936 -2.10543,3.39145 -2.22603,2.06529 -4.54088,2.82184 z"
       id="text11632"
       style="font-size:23.4674px;font-family:'Akhbar MT';-inkscape-font-specification:'Akhbar MT, Normal';font-variant-caps:all-small-caps;fill:none;stroke:#000000;stroke-width:1.95562"
       transform="rotate(1.5833246,-103.48036,150.03014)"
       aria-label="S O L U T I O N S" />
  </g>
</svg>
